<?xml version="1.0" standalone="no"?>
<!DOCTYPE svg PUBLIC "-//W3C//DTD SVG 20010904//EN"
 "http://www.w3.org/TR/2001/REC-SVG-20010904/DTD/svg10.dtd">
<svg version="1.0" xmlns="http://www.w3.org/2000/svg"
 width="440.000000pt" height="116.000000pt" viewBox="0 0 440.000000 116.000000"
 preserveAspectRatio="xMidYMid meet">
<metadata>
Created by potrace 1.16, written by Peter Selinger 2001-2019
</metadata>
<g transform="translate(0.000000,116.000000) scale(0.100000,-0.100000)"
fill="#000000" stroke="none">
<path d="M426 1118 c-7 -13 -17 -32 -20 -43 -3 -11 -25 -29 -48 -40 -24 -11
-43 -24 -43 -30 0 -5 18 -19 41 -29 30 -14 46 -30 60 -60 10 -23 24 -41 29
-40 6 1 18 19 29 42 14 30 28 44 57 55 50 20 49 39 0 62 -29 13 -44 28 -55 55
-20 49 -32 56 -50 28z"/>
<path d="M801 1048 c-84 -45 -134 -151 -112 -235 45 -168 255 -219 368 -90 85
97 63 240 -48 314 -59 39 -147 44 -208 11z"/>
<path d="M279 757 c-195 -55 -308 -256 -250 -443 72 -235 345 -329 545 -187
135 96 185 288 112 437 -34 69 -130 159 -195 181 -64 22 -157 27 -212 12z
m239 -110 c49 -24 68 -117 36 -178 -20 -40 -74 -63 -128 -54 -70 10 -106 54
-106 127 0 38 6 54 28 79 40 44 110 55 170 26z"/>
<path d="M1260 645 l0 -115 65 0 c58 0 65 2 65 20 0 17 -7 20 -40 20 -38 0
-40 2 -40 30 0 28 3 30 35 30 28 0 35 4 35 20 0 16 -7 20 -35 20 -30 0 -35 3
-35 24 0 21 5 25 37 28 27 2 39 8 41 21 3 15 -5 17 -62 17 l-66 0 0 -115z"/>
<path d="M1874 750 c-36 -14 -74 -69 -74 -105 0 -46 49 -102 96 -111 47 -9 86
2 82 24 -2 13 -14 17 -45 18 -53 0 -83 25 -83 69 0 43 30 69 82 69 43 1 62 21
37 37 -17 11 -67 10 -95 -1z"/>
<path d="M3222 744 c-38 -26 -27 -72 26 -107 23 -16 42 -35 42 -43 0 -21 -29
-29 -61 -17 -22 8 -31 8 -39 -2 -15 -18 24 -45 66 -45 40 0 84 34 84 65 0 24
-44 69 -81 80 -36 12 -19 40 23 39 42 -1 58 20 28 36 -27 15 -62 12 -88 -6z"/>
<path d="M2280 643 c-26 -34 -25 -59 5 -88 26 -27 46 -31 75 -15 13 7 21 7 25
0 3 -5 13 -10 21 -10 11 0 14 16 14 69 l0 68 -60 1 c-53 1 -62 -2 -80 -25z"/>
<path d="M2930 650 c-48 -48 -3 -128 65 -117 38 6 44 -2 19 -27 -18 -18 -28
-20 -53 -7 -10 6 -23 6 -32 0 -22 -15 17 -39 62 -39 29 0 42 6 59 27 18 23 20
38 18 102 l-3 76 -57 3 c-47 2 -62 -2 -78 -18z"/>
<path d="M3540 598 c0 -61 2 -68 19 -68 16 0 20 8 23 46 2 30 9 50 18 54 8 4
26 13 39 19 27 14 23 18 71 -69 14 -25 31 -45 38 -45 14 0 83 115 76 127 -12
18 -36 5 -51 -27 -9 -19 -20 -35 -25 -35 -4 0 -14 16 -22 35 l-15 35 -85 -2
-86 -2 0 -68z"/>
</g>
</svg>
