<svg xmlns="http://www.w3.org/2000/svg" xmlns:xlink="http://www.w3.org/1999/xlink" width="455" zoomAndPan="magnify" viewBox="0 0 341.25 82.499998" height="110" preserveAspectRatio="xMidYMid meet" version="1.0"><defs><g/><clipPath id="40f8eaf6df"><path d="M 0.65625 28.0625 L 54.289062 28.0625 L 54.289062 81.699219 L 0.65625 81.699219 Z M 0.65625 28.0625 " clip-rule="nonzero"/></clipPath><clipPath id="a62ff04ce3"><path d="M 27.472656 28.0625 C 12.660156 28.0625 0.65625 40.070312 0.65625 54.878906 C 0.65625 69.691406 12.660156 81.699219 27.472656 81.699219 C 42.285156 81.699219 54.289062 69.691406 54.289062 54.878906 C 54.289062 40.070312 42.285156 28.0625 27.472656 28.0625 Z M 27.472656 28.0625 " clip-rule="nonzero"/></clipPath><clipPath id="1353a3d12c"><path d="M 50.726562 5.292969 L 83.230469 5.292969 L 83.230469 37.796875 L 50.726562 37.796875 Z M 50.726562 5.292969 " clip-rule="nonzero"/></clipPath><clipPath id="f2fbe3ba21"><path d="M 66.980469 5.292969 C 58.003906 5.292969 50.726562 12.570312 50.726562 21.546875 C 50.726562 30.519531 58.003906 37.796875 66.980469 37.796875 C 75.953125 37.796875 83.230469 30.519531 83.230469 21.546875 C 83.230469 12.570312 75.953125 5.292969 66.980469 5.292969 Z M 66.980469 5.292969 " clip-rule="nonzero"/></clipPath><clipPath id="9ad6d7e46b"><path d="M 36 0 L 45.804688 0 L 45.804688 24.664062 L 36 24.664062 Z M 36 0 " clip-rule="nonzero"/></clipPath><clipPath id="115e762ee2"><path d="M 23.089844 0 L 45.804688 0 L 45.804688 24.664062 L 23.089844 24.664062 Z M 23.089844 0 " clip-rule="nonzero"/></clipPath><clipPath id="4471fceb60"><path d="M 64 45.429688 L 74.449219 45.429688 L 74.449219 59 L 64 59 Z M 64 45.429688 " clip-rule="nonzero"/></clipPath><clipPath id="3b63d4f34c"><path d="M 59.523438 45.429688 L 74 45.429688 L 74 60.355469 L 59.523438 60.355469 Z M 59.523438 45.429688 " clip-rule="nonzero"/></clipPath><clipPath id="5aff3cc724"><path d="M 23.96875 36.050781 L 42.796875 36.050781 L 42.796875 54.878906 L 23.96875 54.878906 Z M 23.96875 36.050781 " clip-rule="nonzero"/></clipPath><clipPath id="a3deb6d253"><path d="M 33.382812 36.050781 C 28.183594 36.050781 23.96875 40.265625 23.96875 45.464844 C 23.96875 50.664062 28.183594 54.878906 33.382812 54.878906 C 38.582031 54.878906 42.796875 50.664062 42.796875 45.464844 C 42.796875 40.265625 38.582031 36.050781 33.382812 36.050781 Z M 33.382812 36.050781 " clip-rule="nonzero"/></clipPath><clipPath id="028385f0d0"><path d="M 39.019531 55.757812 L 47.871094 55.757812 L 47.871094 64.609375 L 39.019531 64.609375 Z M 39.019531 55.757812 " clip-rule="nonzero"/></clipPath><clipPath id="60854f111d"><path d="M 43.445312 55.757812 C 41 55.757812 39.019531 57.738281 39.019531 60.183594 C 39.019531 62.628906 41 64.609375 43.445312 64.609375 C 45.890625 64.609375 47.871094 62.628906 47.871094 60.183594 C 47.871094 57.738281 45.890625 55.757812 43.445312 55.757812 Z M 43.445312 55.757812 " clip-rule="nonzero"/></clipPath><clipPath id="fea319e49e"><path d="M 66.925781 10.585938 L 75.777344 10.585938 L 75.777344 19.4375 L 66.925781 19.4375 Z M 66.925781 10.585938 " clip-rule="nonzero"/></clipPath><clipPath id="b29cd3625c"><path d="M 71.351562 10.585938 C 68.910156 10.585938 66.925781 12.570312 66.925781 15.011719 C 66.925781 17.457031 68.910156 19.4375 71.351562 19.4375 C 73.796875 19.4375 75.777344 17.457031 75.777344 15.011719 C 75.777344 12.570312 73.796875 10.585938 71.351562 10.585938 Z M 71.351562 10.585938 " clip-rule="nonzero"/></clipPath></defs><g fill="#0071af" fill-opacity="1"><g transform="translate(92.830952, 46.439994)"><g><path d="M 11.109375 -17.21875 L 11.109375 -13.78125 L 5.171875 -13.78125 L 5.171875 -10.359375 L 10.859375 -10.359375 L 10.859375 -6.90625 L 5.171875 -6.90625 L 5.171875 -3.4375 L 11.109375 -3.4375 L 11.109375 0 L 1.25 0 L 1.25 -17.21875 Z M 11.109375 -17.21875 "/></g></g></g><g fill="#0071af" fill-opacity="1"><g transform="translate(104.937627, 46.439994)"><g><path d="M 1.25 0 L 1.25 -17.953125 L 4.953125 -17.953125 L 4.953125 0 Z M 1.25 0 "/></g></g></g><g fill="#0071af" fill-opacity="1"><g transform="translate(111.137084, 46.439994)"><g><path d="M 1.59375 -16.671875 C 2.03125 -17.109375 2.546875 -17.328125 3.140625 -17.328125 C 3.742188 -17.328125 4.257812 -17.109375 4.6875 -16.671875 C 5.125 -16.242188 5.34375 -15.726562 5.34375 -15.125 C 5.34375 -14.53125 5.125 -14.015625 4.6875 -13.578125 C 4.257812 -13.148438 3.742188 -12.9375 3.140625 -12.9375 C 2.546875 -12.9375 2.03125 -13.148438 1.59375 -13.578125 C 1.164062 -14.015625 0.953125 -14.53125 0.953125 -15.125 C 0.953125 -15.726562 1.164062 -16.242188 1.59375 -16.671875 Z M 1.25 -10.703125 L 1.25 0 L 4.953125 0 L 4.953125 -10.703125 Z M 1.25 -10.703125 "/></g></g></g><g fill="#0071af" fill-opacity="1"><g transform="translate(117.440908, 46.439994)"><g><path d="M 5.90625 -11.015625 C 6.519531 -11.015625 7.125 -10.945312 7.71875 -10.8125 C 8.320312 -10.675781 8.769531 -10.535156 9.0625 -10.390625 L 9.5 -10.1875 L 8.28125 -7.765625 C 7.445312 -8.210938 6.65625 -8.4375 5.90625 -8.4375 C 5.488281 -8.4375 5.191406 -8.390625 5.015625 -8.296875 C 4.847656 -8.203125 4.765625 -8.03125 4.765625 -7.78125 C 4.765625 -7.726562 4.769531 -7.671875 4.78125 -7.609375 C 4.789062 -7.554688 4.816406 -7.503906 4.859375 -7.453125 C 4.898438 -7.410156 4.9375 -7.367188 4.96875 -7.328125 C 5.007812 -7.296875 5.070312 -7.257812 5.15625 -7.21875 C 5.238281 -7.175781 5.300781 -7.144531 5.34375 -7.125 C 5.394531 -7.101562 5.476562 -7.070312 5.59375 -7.03125 C 5.707031 -6.988281 5.789062 -6.957031 5.84375 -6.9375 C 5.894531 -6.914062 5.988281 -6.882812 6.125 -6.84375 C 6.257812 -6.800781 6.359375 -6.773438 6.421875 -6.765625 C 6.859375 -6.640625 7.234375 -6.5 7.546875 -6.34375 C 7.867188 -6.1875 8.207031 -5.976562 8.5625 -5.71875 C 8.914062 -5.457031 9.191406 -5.125 9.390625 -4.71875 C 9.585938 -4.3125 9.6875 -3.851562 9.6875 -3.34375 C 9.6875 -0.90625 7.992188 0.3125 4.609375 0.3125 C 3.847656 0.3125 3.125 0.195312 2.4375 -0.03125 C 1.75 -0.269531 1.25 -0.507812 0.9375 -0.75 L 0.484375 -1.125 L 1.984375 -3.65625 C 2.097656 -3.550781 2.242188 -3.429688 2.421875 -3.296875 C 2.597656 -3.171875 2.921875 -2.992188 3.390625 -2.765625 C 3.867188 -2.535156 4.285156 -2.421875 4.640625 -2.421875 C 5.398438 -2.421875 5.78125 -2.675781 5.78125 -3.1875 C 5.78125 -3.425781 5.679688 -3.613281 5.484375 -3.75 C 5.296875 -3.882812 4.96875 -4.035156 4.5 -4.203125 C 4.03125 -4.367188 3.664062 -4.519531 3.40625 -4.65625 C 2.738281 -5 2.207031 -5.390625 1.8125 -5.828125 C 1.425781 -6.265625 1.234375 -6.847656 1.234375 -7.578125 C 1.234375 -8.660156 1.648438 -9.503906 2.484375 -10.109375 C 3.328125 -10.710938 4.46875 -11.015625 5.90625 -11.015625 Z M 5.90625 -11.015625 "/></g></g></g><g fill="#0071af" fill-opacity="1"><g transform="translate(127.710712, 46.439994)"><g/></g></g><g fill="#0071af" fill-opacity="1"><g transform="translate(133.409197, 46.439994)"><g><path d="M 10.421875 -3.546875 C 11.015625 -3.546875 11.59375 -3.632812 12.15625 -3.8125 C 12.71875 -4 13.132812 -4.175781 13.40625 -4.34375 L 13.796875 -4.609375 L 15.46875 -1.265625 C 15.414062 -1.222656 15.335938 -1.164062 15.234375 -1.09375 C 15.140625 -1.03125 14.914062 -0.90625 14.5625 -0.71875 C 14.207031 -0.53125 13.828125 -0.363281 13.421875 -0.21875 C 13.015625 -0.0820312 12.484375 0.0351562 11.828125 0.140625 C 11.179688 0.253906 10.507812 0.3125 9.8125 0.3125 C 8.207031 0.3125 6.6875 -0.078125 5.25 -0.859375 C 3.820312 -1.648438 2.671875 -2.734375 1.796875 -4.109375 C 0.921875 -5.484375 0.484375 -6.972656 0.484375 -8.578125 C 0.484375 -9.785156 0.738281 -10.945312 1.25 -12.0625 C 1.769531 -13.175781 2.457031 -14.128906 3.3125 -14.921875 C 4.164062 -15.710938 5.160156 -16.34375 6.296875 -16.8125 C 7.441406 -17.289062 8.613281 -17.53125 9.8125 -17.53125 C 10.925781 -17.53125 11.953125 -17.394531 12.890625 -17.125 C 13.828125 -16.863281 14.492188 -16.601562 14.890625 -16.34375 L 15.46875 -15.953125 L 13.796875 -12.609375 C 13.703125 -12.691406 13.554688 -12.789062 13.359375 -12.90625 C 13.160156 -13.03125 12.769531 -13.1875 12.1875 -13.375 C 11.601562 -13.570312 11.015625 -13.671875 10.421875 -13.671875 C 9.472656 -13.671875 8.625 -13.515625 7.875 -13.203125 C 7.125 -12.898438 6.523438 -12.5 6.078125 -12 C 5.640625 -11.5 5.304688 -10.957031 5.078125 -10.375 C 4.847656 -9.800781 4.734375 -9.21875 4.734375 -8.625 C 4.734375 -7.3125 5.222656 -6.132812 6.203125 -5.09375 C 7.191406 -4.0625 8.597656 -3.546875 10.421875 -3.546875 Z M 10.421875 -3.546875 "/></g></g></g><g fill="#0071af" fill-opacity="1"><g transform="translate(149.127004, 46.439994)"><g><path d="M 1.25 0 L 1.25 -17.953125 L 4.953125 -17.953125 L 4.953125 0 Z M 1.25 0 "/></g></g></g><g fill="#0071af" fill-opacity="1"><g transform="translate(155.326461, 46.439994)"><g><path d="M 12.09375 -4.84375 L 4.328125 -4.84375 C 4.328125 -4.09375 4.566406 -3.535156 5.046875 -3.171875 C 5.535156 -2.804688 6.066406 -2.625 6.640625 -2.625 C 7.234375 -2.625 7.703125 -2.703125 8.046875 -2.859375 C 8.398438 -3.023438 8.800781 -3.34375 9.25 -3.8125 L 11.921875 -2.484375 C 10.804688 -0.617188 8.953125 0.3125 6.359375 0.3125 C 4.753906 0.3125 3.375 -0.238281 2.21875 -1.34375 C 1.0625 -2.445312 0.484375 -3.78125 0.484375 -5.34375 C 0.484375 -6.90625 1.0625 -8.238281 2.21875 -9.34375 C 3.375 -10.457031 4.753906 -11.015625 6.359375 -11.015625 C 8.054688 -11.015625 9.4375 -10.523438 10.5 -9.546875 C 11.570312 -8.566406 12.109375 -7.164062 12.109375 -5.34375 C 12.109375 -5.09375 12.101562 -4.925781 12.09375 -4.84375 Z M 4.421875 -6.890625 L 8.5 -6.890625 C 8.414062 -7.441406 8.195312 -7.867188 7.84375 -8.171875 C 7.488281 -8.472656 7.03125 -8.625 6.46875 -8.625 C 5.851562 -8.625 5.363281 -8.460938 5 -8.140625 C 4.644531 -7.816406 4.453125 -7.398438 4.421875 -6.890625 Z M 4.421875 -6.890625 "/></g></g></g><g fill="#0071af" fill-opacity="1"><g transform="translate(167.913225, 46.439994)"><g><path d="M 1.984375 -1.328125 C 0.984375 -2.421875 0.484375 -3.757812 0.484375 -5.34375 C 0.484375 -6.925781 0.984375 -8.265625 1.984375 -9.359375 C 2.984375 -10.460938 4.253906 -11.015625 5.796875 -11.015625 C 7.222656 -11.015625 8.394531 -10.570312 9.3125 -9.6875 L 9.3125 -10.703125 L 13 -10.703125 L 13 0 L 9.359375 0 L 9.359375 -1.203125 L 9.3125 -1.203125 C 8.394531 -0.191406 7.222656 0.3125 5.796875 0.3125 C 4.253906 0.3125 2.984375 -0.234375 1.984375 -1.328125 Z M 5.125 -7.15625 C 4.644531 -6.6875 4.40625 -6.082031 4.40625 -5.34375 C 4.40625 -4.601562 4.632812 -4 5.09375 -3.53125 C 5.550781 -3.070312 6.15625 -2.84375 6.90625 -2.84375 C 7.632812 -2.84375 8.226562 -3.078125 8.6875 -3.546875 C 9.15625 -4.023438 9.390625 -4.625 9.390625 -5.34375 C 9.390625 -6.082031 9.148438 -6.6875 8.671875 -7.15625 C 8.191406 -7.632812 7.601562 -7.875 6.90625 -7.875 C 6.195312 -7.875 5.601562 -7.632812 5.125 -7.15625 Z M 5.125 -7.15625 "/></g></g></g><g fill="#0071af" fill-opacity="1"><g transform="translate(182.169883, 46.439994)"><g><path d="M 1.25 0 L 1.25 -10.703125 L 4.953125 -10.703125 L 4.953125 -9.578125 L 4.984375 -9.578125 C 5.941406 -10.535156 6.96875 -11.015625 8.0625 -11.015625 C 8.582031 -11.015625 9.101562 -10.945312 9.625 -10.8125 C 10.15625 -10.675781 10.660156 -10.460938 11.140625 -10.171875 C 11.617188 -9.878906 12.003906 -9.460938 12.296875 -8.921875 C 12.597656 -8.390625 12.75 -7.769531 12.75 -7.0625 L 12.75 0 L 9.0625 0 L 9.0625 -6.046875 C 9.0625 -6.609375 8.882812 -7.097656 8.53125 -7.515625 C 8.175781 -7.929688 7.710938 -8.140625 7.140625 -8.140625 C 6.578125 -8.140625 6.070312 -7.921875 5.625 -7.484375 C 5.175781 -7.054688 4.953125 -6.578125 4.953125 -6.046875 L 4.953125 0 Z M 1.25 0 "/></g></g></g><g fill="#0071af" fill-opacity="1"><g transform="translate(195.967315, 46.439994)"><g><path d="M 1.59375 -16.671875 C 2.03125 -17.109375 2.546875 -17.328125 3.140625 -17.328125 C 3.742188 -17.328125 4.257812 -17.109375 4.6875 -16.671875 C 5.125 -16.242188 5.34375 -15.726562 5.34375 -15.125 C 5.34375 -14.53125 5.125 -14.015625 4.6875 -13.578125 C 4.257812 -13.148438 3.742188 -12.9375 3.140625 -12.9375 C 2.546875 -12.9375 2.03125 -13.148438 1.59375 -13.578125 C 1.164062 -14.015625 0.953125 -14.53125 0.953125 -15.125 C 0.953125 -15.726562 1.164062 -16.242188 1.59375 -16.671875 Z M 1.25 -10.703125 L 1.25 0 L 4.953125 0 L 4.953125 -10.703125 Z M 1.25 -10.703125 "/></g></g></g><g fill="#0071af" fill-opacity="1"><g transform="translate(202.271139, 46.439994)"><g><path d="M 1.25 0 L 1.25 -10.703125 L 4.953125 -10.703125 L 4.953125 -9.578125 L 4.984375 -9.578125 C 5.941406 -10.535156 6.96875 -11.015625 8.0625 -11.015625 C 8.582031 -11.015625 9.101562 -10.945312 9.625 -10.8125 C 10.15625 -10.675781 10.660156 -10.460938 11.140625 -10.171875 C 11.617188 -9.878906 12.003906 -9.460938 12.296875 -8.921875 C 12.597656 -8.390625 12.75 -7.769531 12.75 -7.0625 L 12.75 0 L 9.0625 0 L 9.0625 -6.046875 C 9.0625 -6.609375 8.882812 -7.097656 8.53125 -7.515625 C 8.175781 -7.929688 7.710938 -8.140625 7.140625 -8.140625 C 6.578125 -8.140625 6.070312 -7.921875 5.625 -7.484375 C 5.175781 -7.054688 4.953125 -6.578125 4.953125 -6.046875 L 4.953125 0 Z M 1.25 0 "/></g></g></g><g fill="#0071af" fill-opacity="1"><g transform="translate(216.068572, 46.439994)"><g><path d="M 0.765625 2.625 L 3.796875 1.140625 C 4.359375 2.066406 5.328125 2.53125 6.703125 2.53125 C 7.335938 2.53125 7.929688 2.320312 8.484375 1.90625 C 9.035156 1.5 9.3125 0.867188 9.3125 0.015625 L 9.3125 -0.765625 C 8.65625 -0.046875 7.484375 0.3125 5.796875 0.3125 C 4.253906 0.3125 2.984375 -0.234375 1.984375 -1.328125 C 0.984375 -2.421875 0.484375 -3.757812 0.484375 -5.34375 C 0.484375 -6.925781 0.984375 -8.265625 1.984375 -9.359375 C 2.984375 -10.460938 4.253906 -11.015625 5.796875 -11.015625 C 7.179688 -11.015625 8.332031 -10.59375 9.25 -9.75 L 9.3125 -9.75 L 9.3125 -10.703125 L 13 -10.703125 L 13 0.296875 C 13 2.035156 12.421875 3.375 11.265625 4.3125 C 10.117188 5.257812 8.597656 5.734375 6.703125 5.734375 C 3.640625 5.734375 1.660156 4.695312 0.765625 2.625 Z M 5.125 -7.15625 C 4.644531 -6.6875 4.40625 -6.082031 4.40625 -5.34375 C 4.40625 -4.601562 4.632812 -4 5.09375 -3.53125 C 5.550781 -3.070312 6.15625 -2.84375 6.90625 -2.84375 C 7.632812 -2.84375 8.226562 -3.078125 8.6875 -3.546875 C 9.15625 -4.023438 9.390625 -4.625 9.390625 -5.34375 C 9.390625 -6.082031 9.148438 -6.6875 8.671875 -7.15625 C 8.191406 -7.632812 7.601562 -7.875 6.90625 -7.875 C 6.195312 -7.875 5.601562 -7.632812 5.125 -7.15625 Z M 5.125 -7.15625 "/></g></g></g><g fill="#0071af" fill-opacity="1"><g transform="translate(230.32523, 46.439994)"><g/></g></g><g fill="#0071af" fill-opacity="1"><g transform="translate(236.023714, 46.439994)"><g><path d="M 7.59375 -17.53125 C 8.53125 -17.53125 9.441406 -17.394531 10.328125 -17.125 C 11.222656 -16.851562 11.882812 -16.585938 12.3125 -16.328125 L 12.9375 -15.90625 L 11.359375 -12.78125 C 11.234375 -12.863281 11.054688 -12.96875 10.828125 -13.09375 C 10.609375 -13.226562 10.191406 -13.40625 9.578125 -13.625 C 8.960938 -13.851562 8.394531 -13.96875 7.875 -13.96875 C 7.21875 -13.96875 6.710938 -13.828125 6.359375 -13.546875 C 6.003906 -13.265625 5.828125 -12.890625 5.828125 -12.421875 C 5.828125 -12.179688 5.910156 -11.957031 6.078125 -11.75 C 6.242188 -11.550781 6.523438 -11.335938 6.921875 -11.109375 C 7.328125 -10.878906 7.679688 -10.695312 7.984375 -10.5625 C 8.296875 -10.425781 8.773438 -10.21875 9.421875 -9.9375 C 10.523438 -9.46875 11.46875 -8.820312 12.25 -8 C 13.039062 -7.1875 13.4375 -6.265625 13.4375 -5.234375 C 13.4375 -4.242188 13.257812 -3.378906 12.90625 -2.640625 C 12.550781 -1.910156 12.0625 -1.335938 11.4375 -0.921875 C 10.820312 -0.503906 10.140625 -0.195312 9.390625 0 C 8.640625 0.207031 7.828125 0.3125 6.953125 0.3125 C 6.203125 0.3125 5.460938 0.234375 4.734375 0.078125 C 4.015625 -0.0664062 3.410156 -0.253906 2.921875 -0.484375 C 2.429688 -0.710938 1.988281 -0.9375 1.59375 -1.15625 C 1.207031 -1.382812 0.925781 -1.578125 0.75 -1.734375 L 0.484375 -1.96875 L 2.4375 -5.265625 C 2.601562 -5.117188 2.832031 -4.9375 3.125 -4.71875 C 3.414062 -4.507812 3.929688 -4.222656 4.671875 -3.859375 C 5.421875 -3.492188 6.082031 -3.3125 6.65625 -3.3125 C 8.3125 -3.3125 9.140625 -3.878906 9.140625 -5.015625 C 9.140625 -5.242188 9.078125 -5.457031 8.953125 -5.65625 C 8.835938 -5.863281 8.628906 -6.066406 8.328125 -6.265625 C 8.035156 -6.472656 7.773438 -6.632812 7.546875 -6.75 C 7.316406 -6.875 6.941406 -7.054688 6.421875 -7.296875 C 5.898438 -7.535156 5.515625 -7.71875 5.265625 -7.84375 C 4.210938 -8.363281 3.398438 -9.007812 2.828125 -9.78125 C 2.265625 -10.550781 1.984375 -11.382812 1.984375 -12.28125 C 1.984375 -13.820312 2.550781 -15.082031 3.6875 -16.0625 C 4.832031 -17.039062 6.132812 -17.53125 7.59375 -17.53125 Z M 7.59375 -17.53125 "/></g></g></g><g fill="#0071af" fill-opacity="1"><g transform="translate(250.050765, 46.439994)"><g><path d="M 12.09375 -4.84375 L 4.328125 -4.84375 C 4.328125 -4.09375 4.566406 -3.535156 5.046875 -3.171875 C 5.535156 -2.804688 6.066406 -2.625 6.640625 -2.625 C 7.234375 -2.625 7.703125 -2.703125 8.046875 -2.859375 C 8.398438 -3.023438 8.800781 -3.34375 9.25 -3.8125 L 11.921875 -2.484375 C 10.804688 -0.617188 8.953125 0.3125 6.359375 0.3125 C 4.753906 0.3125 3.375 -0.238281 2.21875 -1.34375 C 1.0625 -2.445312 0.484375 -3.78125 0.484375 -5.34375 C 0.484375 -6.90625 1.0625 -8.238281 2.21875 -9.34375 C 3.375 -10.457031 4.753906 -11.015625 6.359375 -11.015625 C 8.054688 -11.015625 9.4375 -10.523438 10.5 -9.546875 C 11.570312 -8.566406 12.109375 -7.164062 12.109375 -5.34375 C 12.109375 -5.09375 12.101562 -4.925781 12.09375 -4.84375 Z M 4.421875 -6.890625 L 8.5 -6.890625 C 8.414062 -7.441406 8.195312 -7.867188 7.84375 -8.171875 C 7.488281 -8.472656 7.03125 -8.625 6.46875 -8.625 C 5.851562 -8.625 5.363281 -8.460938 5 -8.140625 C 4.644531 -7.816406 4.453125 -7.398438 4.421875 -6.890625 Z M 4.421875 -6.890625 "/></g></g></g><g fill="#0071af" fill-opacity="1"><g transform="translate(262.637528, 46.439994)"><g><path d="M 1.25 0 L 1.25 -10.703125 L 4.953125 -10.703125 L 4.953125 -9.171875 L 4.984375 -9.171875 C 5.015625 -9.222656 5.0625 -9.289062 5.125 -9.375 C 5.1875 -9.457031 5.320312 -9.601562 5.53125 -9.8125 C 5.738281 -10.019531 5.960938 -10.207031 6.203125 -10.375 C 6.441406 -10.539062 6.75 -10.6875 7.125 -10.8125 C 7.5 -10.945312 7.878906 -11.015625 8.265625 -11.015625 C 8.671875 -11.015625 9.066406 -10.957031 9.453125 -10.84375 C 9.847656 -10.738281 10.132812 -10.628906 10.3125 -10.515625 L 10.609375 -10.359375 L 9.0625 -7.21875 C 8.601562 -7.613281 7.960938 -7.8125 7.140625 -7.8125 C 6.691406 -7.8125 6.304688 -7.710938 5.984375 -7.515625 C 5.671875 -7.316406 5.445312 -7.078125 5.3125 -6.796875 C 5.175781 -6.523438 5.082031 -6.289062 5.03125 -6.09375 C 4.976562 -5.894531 4.953125 -5.742188 4.953125 -5.640625 L 4.953125 0 Z M 1.25 0 "/></g></g></g><g fill="#0071af" fill-opacity="1"><g transform="translate(273.032573, 46.439994)"><g><path d="M 3.96875 -10.703125 L 6.578125 -4.890625 L 9.1875 -10.703125 L 13.5625 -10.703125 L 7.828125 0 L 5.328125 0 L -0.421875 -10.703125 Z M 3.96875 -10.703125 "/></g></g></g><g fill="#0071af" fill-opacity="1"><g transform="translate(286.182942, 46.439994)"><g><path d="M 1.59375 -16.671875 C 2.03125 -17.109375 2.546875 -17.328125 3.140625 -17.328125 C 3.742188 -17.328125 4.257812 -17.109375 4.6875 -16.671875 C 5.125 -16.242188 5.34375 -15.726562 5.34375 -15.125 C 5.34375 -14.53125 5.125 -14.015625 4.6875 -13.578125 C 4.257812 -13.148438 3.742188 -12.9375 3.140625 -12.9375 C 2.546875 -12.9375 2.03125 -13.148438 1.59375 -13.578125 C 1.164062 -14.015625 0.953125 -14.53125 0.953125 -15.125 C 0.953125 -15.726562 1.164062 -16.242188 1.59375 -16.671875 Z M 1.25 -10.703125 L 1.25 0 L 4.953125 0 L 4.953125 -10.703125 Z M 1.25 -10.703125 "/></g></g></g><g fill="#0071af" fill-opacity="1"><g transform="translate(292.486777, 46.439994)"><g><path d="M 6.953125 -8 C 6.253906 -8 5.65625 -7.738281 5.15625 -7.21875 C 4.65625 -6.707031 4.40625 -6.085938 4.40625 -5.359375 C 4.40625 -4.628906 4.65625 -4.003906 5.15625 -3.484375 C 5.65625 -2.972656 6.253906 -2.71875 6.953125 -2.71875 C 7.285156 -2.71875 7.597656 -2.757812 7.890625 -2.84375 C 8.191406 -2.925781 8.414062 -3.007812 8.5625 -3.09375 L 8.75 -3.21875 L 10 -0.640625 C 9.90625 -0.578125 9.769531 -0.492188 9.59375 -0.390625 C 9.414062 -0.285156 9.015625 -0.144531 8.390625 0.03125 C 7.773438 0.21875 7.113281 0.3125 6.40625 0.3125 C 4.832031 0.3125 3.453125 -0.238281 2.265625 -1.34375 C 1.078125 -2.445312 0.484375 -3.773438 0.484375 -5.328125 C 0.484375 -6.878906 1.078125 -8.210938 2.265625 -9.328125 C 3.453125 -10.453125 4.832031 -11.015625 6.40625 -11.015625 C 7.113281 -11.015625 7.765625 -10.929688 8.359375 -10.765625 C 8.960938 -10.597656 9.390625 -10.429688 9.640625 -10.265625 L 10 -10.015625 L 8.75 -7.5 C 8.289062 -7.832031 7.691406 -8 6.953125 -8 Z M 6.953125 -8 "/></g></g></g><g fill="#0071af" fill-opacity="1"><g transform="translate(302.735697, 46.439994)"><g><path d="M 12.09375 -4.84375 L 4.328125 -4.84375 C 4.328125 -4.09375 4.566406 -3.535156 5.046875 -3.171875 C 5.535156 -2.804688 6.066406 -2.625 6.640625 -2.625 C 7.234375 -2.625 7.703125 -2.703125 8.046875 -2.859375 C 8.398438 -3.023438 8.800781 -3.34375 9.25 -3.8125 L 11.921875 -2.484375 C 10.804688 -0.617188 8.953125 0.3125 6.359375 0.3125 C 4.753906 0.3125 3.375 -0.238281 2.21875 -1.34375 C 1.0625 -2.445312 0.484375 -3.78125 0.484375 -5.34375 C 0.484375 -6.90625 1.0625 -8.238281 2.21875 -9.34375 C 3.375 -10.457031 4.753906 -11.015625 6.359375 -11.015625 C 8.054688 -11.015625 9.4375 -10.523438 10.5 -9.546875 C 11.570312 -8.566406 12.109375 -7.164062 12.109375 -5.34375 C 12.109375 -5.09375 12.101562 -4.925781 12.09375 -4.84375 Z M 4.421875 -6.890625 L 8.5 -6.890625 C 8.414062 -7.441406 8.195312 -7.867188 7.84375 -8.171875 C 7.488281 -8.472656 7.03125 -8.625 6.46875 -8.625 C 5.851562 -8.625 5.363281 -8.460938 5 -8.140625 C 4.644531 -7.816406 4.453125 -7.398438 4.421875 -6.890625 Z M 4.421875 -6.890625 "/></g></g></g><g fill="#0071af" fill-opacity="1"><g transform="translate(315.322461, 46.439994)"><g><path d="M 5.90625 -11.015625 C 6.519531 -11.015625 7.125 -10.945312 7.71875 -10.8125 C 8.320312 -10.675781 8.769531 -10.535156 9.0625 -10.390625 L 9.5 -10.1875 L 8.28125 -7.765625 C 7.445312 -8.210938 6.65625 -8.4375 5.90625 -8.4375 C 5.488281 -8.4375 5.191406 -8.390625 5.015625 -8.296875 C 4.847656 -8.203125 4.765625 -8.03125 4.765625 -7.78125 C 4.765625 -7.726562 4.769531 -7.671875 4.78125 -7.609375 C 4.789062 -7.554688 4.816406 -7.503906 4.859375 -7.453125 C 4.898438 -7.410156 4.9375 -7.367188 4.96875 -7.328125 C 5.007812 -7.296875 5.070312 -7.257812 5.15625 -7.21875 C 5.238281 -7.175781 5.300781 -7.144531 5.34375 -7.125 C 5.394531 -7.101562 5.476562 -7.070312 5.59375 -7.03125 C 5.707031 -6.988281 5.789062 -6.957031 5.84375 -6.9375 C 5.894531 -6.914062 5.988281 -6.882812 6.125 -6.84375 C 6.257812 -6.800781 6.359375 -6.773438 6.421875 -6.765625 C 6.859375 -6.640625 7.234375 -6.5 7.546875 -6.34375 C 7.867188 -6.1875 8.207031 -5.976562 8.5625 -5.71875 C 8.914062 -5.457031 9.191406 -5.125 9.390625 -4.71875 C 9.585938 -4.3125 9.6875 -3.851562 9.6875 -3.34375 C 9.6875 -0.90625 7.992188 0.3125 4.609375 0.3125 C 3.847656 0.3125 3.125 0.195312 2.4375 -0.03125 C 1.75 -0.269531 1.25 -0.507812 0.9375 -0.75 L 0.484375 -1.125 L 1.984375 -3.65625 C 2.097656 -3.550781 2.242188 -3.429688 2.421875 -3.296875 C 2.597656 -3.171875 2.921875 -2.992188 3.390625 -2.765625 C 3.867188 -2.535156 4.285156 -2.421875 4.640625 -2.421875 C 5.398438 -2.421875 5.78125 -2.675781 5.78125 -3.1875 C 5.78125 -3.425781 5.679688 -3.613281 5.484375 -3.75 C 5.296875 -3.882812 4.96875 -4.035156 4.5 -4.203125 C 4.03125 -4.367188 3.664062 -4.519531 3.40625 -4.65625 C 2.738281 -5 2.207031 -5.390625 1.8125 -5.828125 C 1.425781 -6.265625 1.234375 -6.847656 1.234375 -7.578125 C 1.234375 -8.660156 1.648438 -9.503906 2.484375 -10.109375 C 3.328125 -10.710938 4.46875 -11.015625 5.90625 -11.015625 Z M 5.90625 -11.015625 "/></g></g></g><g fill="#0071af" fill-opacity="1"><g transform="translate(127.11147, 68.640615)"><g><path d="M 10.875 -10.71875 C 11.132812 -10.664062 11.332031 -10.578125 11.46875 -10.453125 C 11.601562 -10.328125 11.671875 -10.175781 11.671875 -10 C 11.671875 -9.71875 11.585938 -9.507812 11.421875 -9.375 C 11.265625 -9.25 11.015625 -9.195312 10.671875 -9.21875 C 9.898438 -9.28125 9.296875 -9.320312 8.859375 -9.34375 C 8.421875 -9.363281 7.847656 -9.378906 7.140625 -9.390625 C 6.828125 -7.804688 6.535156 -6.210938 6.265625 -4.609375 C 6.171875 -4.023438 6.070312 -3.347656 5.96875 -2.578125 C 5.863281 -1.804688 5.796875 -1.179688 5.765625 -0.703125 C 5.742188 -0.460938 5.640625 -0.273438 5.453125 -0.140625 C 5.265625 -0.00390625 5.035156 0.0625 4.765625 0.0625 C 4.484375 0.0625 4.265625 -0.00390625 4.109375 -0.140625 C 3.953125 -0.273438 3.875 -0.457031 3.875 -0.6875 C 3.875 -0.894531 3.90625 -1.234375 3.96875 -1.703125 C 4.039062 -2.179688 4.117188 -2.6875 4.203125 -3.21875 C 4.296875 -3.738281 4.367188 -4.195312 4.421875 -4.59375 C 4.515625 -5.238281 4.617188 -5.882812 4.734375 -6.53125 C 4.859375 -7.175781 4.984375 -7.789062 5.109375 -8.375 C 5.128906 -8.5 5.15625 -8.644531 5.1875 -8.8125 C 5.226562 -8.988281 5.269531 -9.175781 5.3125 -9.375 C 4.46875 -9.351562 3.800781 -9.285156 3.3125 -9.171875 C 2.832031 -9.054688 2.488281 -8.898438 2.28125 -8.703125 C 2.082031 -8.503906 1.984375 -8.242188 1.984375 -7.921875 C 1.984375 -7.628906 2.070312 -7.347656 2.25 -7.078125 C 2.28125 -7.015625 2.296875 -6.953125 2.296875 -6.890625 C 2.296875 -6.722656 2.195312 -6.566406 2 -6.421875 C 1.8125 -6.285156 1.613281 -6.21875 1.40625 -6.21875 C 1.257812 -6.21875 1.140625 -6.257812 1.046875 -6.34375 C 0.867188 -6.488281 0.722656 -6.695312 0.609375 -6.96875 C 0.503906 -7.238281 0.453125 -7.546875 0.453125 -7.890625 C 0.453125 -8.628906 0.691406 -9.21875 1.171875 -9.65625 C 1.648438 -10.101562 2.375 -10.425781 3.34375 -10.625 C 4.320312 -10.832031 5.582031 -10.9375 7.125 -10.9375 C 8.070312 -10.9375 8.828125 -10.921875 9.390625 -10.890625 C 9.953125 -10.859375 10.445312 -10.800781 10.875 -10.71875 Z M 10.875 -10.71875 "/></g></g></g><g fill="#0071af" fill-opacity="1"><g transform="translate(136.115129, 68.640615)"><g><path d="M 7.796875 -2.875 C 7.898438 -2.875 7.984375 -2.820312 8.046875 -2.71875 C 8.117188 -2.625 8.15625 -2.484375 8.15625 -2.296875 C 8.15625 -1.953125 8.070312 -1.6875 7.90625 -1.5 C 7.507812 -1.039062 7.101562 -0.664062 6.6875 -0.375 C 6.269531 -0.0820312 5.796875 0.0625 5.265625 0.0625 C 4.816406 0.0625 4.476562 -0.0625 4.25 -0.3125 C 4.03125 -0.570312 3.921875 -0.941406 3.921875 -1.421875 C 3.921875 -1.660156 3.984375 -2.09375 4.109375 -2.71875 C 4.222656 -3.257812 4.28125 -3.632812 4.28125 -3.84375 C 4.28125 -3.976562 4.234375 -4.046875 4.140625 -4.046875 C 4.023438 -4.046875 3.863281 -3.898438 3.65625 -3.609375 C 3.445312 -3.316406 3.238281 -2.929688 3.03125 -2.453125 C 2.820312 -1.984375 2.65625 -1.488281 2.53125 -0.96875 C 2.363281 -0.28125 1.957031 0.0625 1.3125 0.0625 C 1.0625 0.0625 0.894531 -0.0234375 0.8125 -0.203125 C 0.726562 -0.390625 0.6875 -0.726562 0.6875 -1.21875 C 0.6875 -1.488281 0.691406 -1.707031 0.703125 -1.875 L 0.703125 -2.90625 C 0.703125 -4.226562 0.835938 -5.609375 1.109375 -7.046875 C 1.390625 -8.492188 1.789062 -9.703125 2.3125 -10.671875 C 2.84375 -11.648438 3.476562 -12.140625 4.21875 -12.140625 C 4.613281 -12.140625 4.9375 -11.96875 5.1875 -11.625 C 5.4375 -11.289062 5.5625 -10.851562 5.5625 -10.3125 C 5.5625 -9.4375 5.304688 -8.53125 4.796875 -7.59375 C 4.285156 -6.664062 3.457031 -5.578125 2.3125 -4.328125 C 2.289062 -3.878906 2.28125 -3.421875 2.28125 -2.953125 C 2.5625 -3.679688 2.875 -4.273438 3.21875 -4.734375 C 3.570312 -5.191406 3.914062 -5.519531 4.25 -5.71875 C 4.59375 -5.914062 4.90625 -6.015625 5.1875 -6.015625 C 5.75 -6.015625 6.03125 -5.738281 6.03125 -5.1875 C 6.03125 -4.84375 5.9375 -4.234375 5.75 -3.359375 C 5.582031 -2.609375 5.5 -2.113281 5.5 -1.875 C 5.5 -1.53125 5.625 -1.359375 5.875 -1.359375 C 6.050781 -1.359375 6.253906 -1.460938 6.484375 -1.671875 C 6.722656 -1.878906 7.039062 -2.222656 7.4375 -2.703125 C 7.539062 -2.816406 7.660156 -2.875 7.796875 -2.875 Z M 3.953125 -10.875 C 3.796875 -10.875 3.625 -10.648438 3.4375 -10.203125 C 3.25 -9.753906 3.066406 -9.15625 2.890625 -8.40625 C 2.710938 -7.65625 2.566406 -6.832031 2.453125 -5.9375 C 2.984375 -6.570312 3.421875 -7.257812 3.765625 -8 C 4.117188 -8.738281 4.296875 -9.410156 4.296875 -10.015625 C 4.296875 -10.285156 4.265625 -10.492188 4.203125 -10.640625 C 4.148438 -10.796875 4.066406 -10.875 3.953125 -10.875 Z M 3.953125 -10.875 "/></g></g></g><g fill="#0071af" fill-opacity="1"><g transform="translate(142.599829, 68.640615)"><g><path d="M 6.390625 -2.875 C 6.492188 -2.875 6.578125 -2.820312 6.640625 -2.71875 C 6.710938 -2.625 6.75 -2.484375 6.75 -2.296875 C 6.75 -1.953125 6.664062 -1.6875 6.5 -1.5 C 6.175781 -1.113281 5.722656 -0.753906 5.140625 -0.421875 C 4.566406 -0.0976562 3.945312 0.0625 3.28125 0.0625 C 2.375 0.0625 1.671875 -0.179688 1.171875 -0.671875 C 0.671875 -1.160156 0.421875 -1.832031 0.421875 -2.6875 C 0.421875 -3.28125 0.546875 -3.832031 0.796875 -4.34375 C 1.046875 -4.851562 1.390625 -5.257812 1.828125 -5.5625 C 2.273438 -5.863281 2.78125 -6.015625 3.34375 -6.015625 C 3.84375 -6.015625 4.242188 -5.863281 4.546875 -5.5625 C 4.847656 -5.269531 5 -4.875 5 -4.375 C 5 -3.769531 4.785156 -3.253906 4.359375 -2.828125 C 3.929688 -2.410156 3.210938 -2.078125 2.203125 -1.828125 C 2.410156 -1.429688 2.816406 -1.234375 3.421875 -1.234375 C 3.804688 -1.234375 4.242188 -1.367188 4.734375 -1.640625 C 5.234375 -1.910156 5.664062 -2.265625 6.03125 -2.703125 C 6.132812 -2.816406 6.253906 -2.875 6.390625 -2.875 Z M 3.125 -4.75 C 2.8125 -4.75 2.539062 -4.5625 2.3125 -4.1875 C 2.09375 -3.820312 1.984375 -3.378906 1.984375 -2.859375 L 1.984375 -2.828125 C 2.492188 -2.953125 2.894531 -3.132812 3.1875 -3.375 C 3.476562 -3.613281 3.625 -3.894531 3.625 -4.21875 C 3.625 -4.375 3.578125 -4.5 3.484375 -4.59375 C 3.398438 -4.695312 3.28125 -4.75 3.125 -4.75 Z M 3.125 -4.75 "/></g></g></g><g fill="#0071af" fill-opacity="1"><g transform="translate(147.676491, 68.640615)"><g/></g></g><g fill="#0071af" fill-opacity="1"><g transform="translate(151.099683, 68.640615)"><g><path d="M 11.21875 -8.265625 C 11.21875 -7.535156 10.957031 -6.90625 10.4375 -6.375 C 9.925781 -5.84375 9.171875 -5.460938 8.171875 -5.234375 C 8.710938 -5.085938 9.117188 -4.847656 9.390625 -4.515625 C 9.671875 -4.179688 9.8125 -3.800781 9.8125 -3.375 C 9.8125 -2.695312 9.597656 -2.109375 9.171875 -1.609375 C 8.742188 -1.109375 8.117188 -0.71875 7.296875 -0.4375 C 6.484375 -0.164062 5.5 -0.03125 4.34375 -0.03125 C 3.914062 -0.03125 3.570312 -0.046875 3.3125 -0.078125 C 3.300781 0.160156 3.195312 0.335938 3 0.453125 C 2.800781 0.578125 2.546875 0.640625 2.234375 0.640625 C 1.921875 0.640625 1.707031 0.570312 1.59375 0.4375 C 1.476562 0.300781 1.429688 0.0976562 1.453125 -0.171875 C 1.523438 -1.378906 1.671875 -2.640625 1.890625 -3.953125 C 2.117188 -5.273438 2.40625 -6.554688 2.75 -7.796875 C 2.8125 -8.003906 2.929688 -8.148438 3.109375 -8.234375 C 3.296875 -8.328125 3.535156 -8.375 3.828125 -8.375 C 4.347656 -8.375 4.609375 -8.226562 4.609375 -7.9375 C 4.609375 -7.8125 4.582031 -7.671875 4.53125 -7.515625 C 4.3125 -6.847656 4.085938 -5.9375 3.859375 -4.78125 C 3.640625 -3.632812 3.484375 -2.539062 3.390625 -1.5 C 3.796875 -1.46875 4.128906 -1.453125 4.390625 -1.453125 C 5.597656 -1.453125 6.484375 -1.625 7.046875 -1.96875 C 7.609375 -2.320312 7.890625 -2.769531 7.890625 -3.3125 C 7.890625 -3.6875 7.726562 -4.003906 7.40625 -4.265625 C 7.082031 -4.523438 6.539062 -4.664062 5.78125 -4.6875 C 5.613281 -4.695312 5.492188 -4.738281 5.421875 -4.8125 C 5.359375 -4.894531 5.328125 -5.019531 5.328125 -5.1875 C 5.328125 -5.4375 5.378906 -5.640625 5.484375 -5.796875 C 5.585938 -5.953125 5.773438 -6.035156 6.046875 -6.046875 C 6.660156 -6.066406 7.210938 -6.15625 7.703125 -6.3125 C 8.203125 -6.476562 8.59375 -6.707031 8.875 -7 C 9.15625 -7.300781 9.296875 -7.648438 9.296875 -8.046875 C 9.296875 -8.546875 9.050781 -8.941406 8.5625 -9.234375 C 8.070312 -9.523438 7.320312 -9.671875 6.3125 -9.671875 C 5.382812 -9.671875 4.488281 -9.550781 3.625 -9.3125 C 2.769531 -9.070312 2.039062 -8.769531 1.4375 -8.40625 C 1.15625 -8.25 0.921875 -8.171875 0.734375 -8.171875 C 0.578125 -8.171875 0.457031 -8.222656 0.375 -8.328125 C 0.300781 -8.429688 0.265625 -8.566406 0.265625 -8.734375 C 0.265625 -8.953125 0.304688 -9.132812 0.390625 -9.28125 C 0.484375 -9.4375 0.703125 -9.617188 1.046875 -9.828125 C 1.765625 -10.234375 2.609375 -10.550781 3.578125 -10.78125 C 4.554688 -11.019531 5.554688 -11.140625 6.578125 -11.140625 C 8.140625 -11.140625 9.300781 -10.875 10.0625 -10.34375 C 10.832031 -9.820312 11.21875 -9.128906 11.21875 -8.265625 Z M 11.21875 -8.265625 "/></g></g></g><g fill="#0071af" fill-opacity="1"><g transform="translate(161.782644, 68.640615)"><g><path d="M 9.75 -2.359375 C 9.882812 -2.398438 9.992188 -2.421875 10.078125 -2.421875 C 10.210938 -2.421875 10.316406 -2.367188 10.390625 -2.265625 C 10.460938 -2.171875 10.5 -2.039062 10.5 -1.875 C 10.5 -1.613281 10.4375 -1.390625 10.3125 -1.203125 C 10.1875 -1.023438 9.972656 -0.863281 9.671875 -0.71875 C 9.160156 -0.476562 8.5 -0.285156 7.6875 -0.140625 C 6.875 -0.00390625 6.078125 0.0625 5.296875 0.0625 C 4.210938 0.0625 3.300781 -0.0546875 2.5625 -0.296875 C 1.832031 -0.546875 1.289062 -0.882812 0.9375 -1.3125 C 0.582031 -1.75 0.40625 -2.238281 0.40625 -2.78125 C 0.40625 -3.519531 0.640625 -4.148438 1.109375 -4.671875 C 1.585938 -5.191406 2.296875 -5.566406 3.234375 -5.796875 C 2.722656 -5.941406 2.332031 -6.203125 2.0625 -6.578125 C 1.789062 -6.953125 1.65625 -7.363281 1.65625 -7.8125 C 1.65625 -8.4375 1.847656 -8.988281 2.234375 -9.46875 C 2.628906 -9.945312 3.15625 -10.3125 3.8125 -10.5625 C 4.476562 -10.820312 5.210938 -10.953125 6.015625 -10.953125 C 7.078125 -10.953125 7.875 -10.722656 8.40625 -10.265625 C 8.945312 -9.804688 9.21875 -9.210938 9.21875 -8.484375 C 9.21875 -7.972656 9.125 -7.554688 8.9375 -7.234375 C 8.75 -6.921875 8.484375 -6.765625 8.140625 -6.765625 C 7.898438 -6.765625 7.707031 -6.816406 7.5625 -6.921875 C 7.425781 -7.035156 7.359375 -7.203125 7.359375 -7.421875 C 7.359375 -7.566406 7.382812 -7.722656 7.4375 -7.890625 C 7.476562 -8.179688 7.5 -8.378906 7.5 -8.484375 C 7.5 -8.785156 7.378906 -9.03125 7.140625 -9.21875 C 6.910156 -9.414062 6.523438 -9.515625 5.984375 -9.515625 C 5.253906 -9.515625 4.664062 -9.359375 4.21875 -9.046875 C 3.78125 -8.742188 3.5625 -8.332031 3.5625 -7.8125 C 3.5625 -7.40625 3.726562 -7.066406 4.0625 -6.796875 C 4.394531 -6.535156 4.9375 -6.394531 5.6875 -6.375 C 5.875 -6.363281 6.003906 -6.316406 6.078125 -6.234375 C 6.160156 -6.160156 6.203125 -6.035156 6.203125 -5.859375 C 6.203125 -5.285156 5.941406 -4.992188 5.421875 -4.984375 C 4.710938 -4.972656 4.125 -4.875 3.65625 -4.6875 C 3.1875 -4.507812 2.84375 -4.28125 2.625 -4 C 2.414062 -3.71875 2.3125 -3.414062 2.3125 -3.09375 C 2.3125 -2.5625 2.5625 -2.160156 3.0625 -1.890625 C 3.5625 -1.617188 4.351562 -1.484375 5.4375 -1.484375 C 6.15625 -1.484375 6.910156 -1.566406 7.703125 -1.734375 C 8.503906 -1.898438 9.1875 -2.109375 9.75 -2.359375 Z M 9.75 -2.359375 "/></g></g></g><g fill="#0071af" fill-opacity="1"><g transform="translate(170.644205, 68.640615)"><g><path d="M 4.21875 0.109375 C 3.070312 0.109375 2.15625 -0.109375 1.46875 -0.546875 C 0.78125 -0.984375 0.4375 -1.648438 0.4375 -2.546875 C 0.4375 -3.015625 0.519531 -3.375 0.6875 -3.625 C 0.851562 -3.875 1.09375 -4 1.40625 -4 C 1.632812 -4 1.820312 -3.9375 1.96875 -3.8125 C 2.125 -3.695312 2.203125 -3.546875 2.203125 -3.359375 C 2.203125 -3.179688 2.1875 -3.03125 2.15625 -2.90625 C 2.15625 -2.875 2.148438 -2.8125 2.140625 -2.71875 C 2.128906 -2.632812 2.125 -2.546875 2.125 -2.453125 C 2.125 -2.066406 2.316406 -1.78125 2.703125 -1.59375 C 3.097656 -1.40625 3.648438 -1.3125 4.359375 -1.3125 C 5.085938 -1.3125 5.65625 -1.441406 6.0625 -1.703125 C 6.476562 -1.960938 6.6875 -2.328125 6.6875 -2.796875 C 6.6875 -3.097656 6.59375 -3.351562 6.40625 -3.5625 C 6.21875 -3.769531 5.976562 -3.941406 5.6875 -4.078125 C 5.40625 -4.222656 5.007812 -4.398438 4.5 -4.609375 C 3.832031 -4.867188 3.289062 -5.113281 2.875 -5.34375 C 2.457031 -5.582031 2.097656 -5.898438 1.796875 -6.296875 C 1.503906 -6.703125 1.359375 -7.203125 1.359375 -7.796875 C 1.359375 -8.410156 1.523438 -8.957031 1.859375 -9.4375 C 2.191406 -9.925781 2.664062 -10.300781 3.28125 -10.5625 C 3.90625 -10.832031 4.640625 -10.96875 5.484375 -10.96875 C 6.117188 -10.96875 6.695312 -10.875 7.21875 -10.6875 C 7.75 -10.507812 8.171875 -10.226562 8.484375 -9.84375 C 8.796875 -9.46875 8.953125 -9.003906 8.953125 -8.453125 C 8.953125 -7.910156 8.867188 -7.5 8.703125 -7.21875 C 8.546875 -6.945312 8.304688 -6.8125 7.984375 -6.8125 C 7.765625 -6.8125 7.578125 -6.878906 7.421875 -7.015625 C 7.273438 -7.148438 7.203125 -7.3125 7.203125 -7.5 C 7.203125 -7.664062 7.210938 -7.816406 7.234375 -7.953125 C 7.265625 -8.210938 7.28125 -8.378906 7.28125 -8.453125 C 7.28125 -8.816406 7.101562 -9.09375 6.75 -9.28125 C 6.394531 -9.46875 5.953125 -9.5625 5.421875 -9.5625 C 4.679688 -9.5625 4.113281 -9.425781 3.71875 -9.15625 C 3.332031 -8.882812 3.140625 -8.503906 3.140625 -8.015625 C 3.140625 -7.679688 3.238281 -7.398438 3.4375 -7.171875 C 3.644531 -6.941406 3.898438 -6.75 4.203125 -6.59375 C 4.503906 -6.4375 4.925781 -6.25 5.46875 -6.03125 C 6.125 -5.769531 6.648438 -5.53125 7.046875 -5.3125 C 7.441406 -5.09375 7.78125 -4.796875 8.0625 -4.421875 C 8.34375 -4.054688 8.484375 -3.601562 8.484375 -3.0625 C 8.484375 -2.039062 8.09375 -1.253906 7.3125 -0.703125 C 6.539062 -0.160156 5.507812 0.109375 4.21875 0.109375 Z M 4.21875 0.109375 "/></g></g></g><g fill="#0071af" fill-opacity="1"><g transform="translate(179.596187, 68.640615)"><g><path d="M 10.875 -10.71875 C 11.132812 -10.664062 11.332031 -10.578125 11.46875 -10.453125 C 11.601562 -10.328125 11.671875 -10.175781 11.671875 -10 C 11.671875 -9.71875 11.585938 -9.507812 11.421875 -9.375 C 11.265625 -9.25 11.015625 -9.195312 10.671875 -9.21875 C 9.898438 -9.28125 9.296875 -9.320312 8.859375 -9.34375 C 8.421875 -9.363281 7.847656 -9.378906 7.140625 -9.390625 C 6.828125 -7.804688 6.535156 -6.210938 6.265625 -4.609375 C 6.171875 -4.023438 6.070312 -3.347656 5.96875 -2.578125 C 5.863281 -1.804688 5.796875 -1.179688 5.765625 -0.703125 C 5.742188 -0.460938 5.640625 -0.273438 5.453125 -0.140625 C 5.265625 -0.00390625 5.035156 0.0625 4.765625 0.0625 C 4.484375 0.0625 4.265625 -0.00390625 4.109375 -0.140625 C 3.953125 -0.273438 3.875 -0.457031 3.875 -0.6875 C 3.875 -0.894531 3.90625 -1.234375 3.96875 -1.703125 C 4.039062 -2.179688 4.117188 -2.6875 4.203125 -3.21875 C 4.296875 -3.738281 4.367188 -4.195312 4.421875 -4.59375 C 4.515625 -5.238281 4.617188 -5.882812 4.734375 -6.53125 C 4.859375 -7.175781 4.984375 -7.789062 5.109375 -8.375 C 5.128906 -8.5 5.15625 -8.644531 5.1875 -8.8125 C 5.226562 -8.988281 5.269531 -9.175781 5.3125 -9.375 C 4.46875 -9.351562 3.800781 -9.285156 3.3125 -9.171875 C 2.832031 -9.054688 2.488281 -8.898438 2.28125 -8.703125 C 2.082031 -8.503906 1.984375 -8.242188 1.984375 -7.921875 C 1.984375 -7.628906 2.070312 -7.347656 2.25 -7.078125 C 2.28125 -7.015625 2.296875 -6.953125 2.296875 -6.890625 C 2.296875 -6.722656 2.195312 -6.566406 2 -6.421875 C 1.8125 -6.285156 1.613281 -6.21875 1.40625 -6.21875 C 1.257812 -6.21875 1.140625 -6.257812 1.046875 -6.34375 C 0.867188 -6.488281 0.722656 -6.695312 0.609375 -6.96875 C 0.503906 -7.238281 0.453125 -7.546875 0.453125 -7.890625 C 0.453125 -8.628906 0.691406 -9.21875 1.171875 -9.65625 C 1.648438 -10.101562 2.375 -10.425781 3.34375 -10.625 C 4.320312 -10.832031 5.582031 -10.9375 7.125 -10.9375 C 8.070312 -10.9375 8.828125 -10.921875 9.390625 -10.890625 C 9.953125 -10.859375 10.445312 -10.800781 10.875 -10.71875 Z M 10.875 -10.71875 "/></g></g></g><g fill="#0071af" fill-opacity="1"><g transform="translate(188.599847, 68.640615)"><g/></g></g><g fill="#0071af" fill-opacity="1"><g transform="translate(192.023039, 68.640615)"><g><path d="M 3.09375 0.0625 C 2.25 0.0625 1.585938 -0.175781 1.109375 -0.65625 C 0.640625 -1.132812 0.40625 -1.765625 0.40625 -2.546875 C 0.40625 -3.242188 0.539062 -3.851562 0.8125 -4.375 C 1.09375 -4.90625 1.453125 -5.3125 1.890625 -5.59375 C 2.335938 -5.875 2.800781 -6.015625 3.28125 -6.015625 C 3.757812 -6.015625 4.128906 -5.875 4.390625 -5.59375 C 4.648438 -5.320312 4.78125 -4.960938 4.78125 -4.515625 C 4.78125 -4.160156 4.695312 -3.859375 4.53125 -3.609375 C 4.375 -3.359375 4.171875 -3.234375 3.921875 -3.234375 C 3.753906 -3.234375 3.617188 -3.269531 3.515625 -3.34375 C 3.421875 -3.425781 3.375 -3.535156 3.375 -3.671875 C 3.375 -3.734375 3.378906 -3.800781 3.390625 -3.875 C 3.410156 -3.957031 3.425781 -4.015625 3.4375 -4.046875 C 3.476562 -4.171875 3.5 -4.289062 3.5 -4.40625 C 3.5 -4.519531 3.46875 -4.601562 3.40625 -4.65625 C 3.351562 -4.71875 3.273438 -4.75 3.171875 -4.75 C 2.972656 -4.75 2.785156 -4.660156 2.609375 -4.484375 C 2.441406 -4.304688 2.304688 -4.066406 2.203125 -3.765625 C 2.097656 -3.472656 2.046875 -3.144531 2.046875 -2.78125 C 2.046875 -1.78125 2.484375 -1.28125 3.359375 -1.28125 C 3.710938 -1.28125 4.09375 -1.394531 4.5 -1.625 C 4.90625 -1.863281 5.3125 -2.222656 5.71875 -2.703125 C 5.8125 -2.816406 5.925781 -2.875 6.0625 -2.875 C 6.175781 -2.875 6.265625 -2.820312 6.328125 -2.71875 C 6.390625 -2.625 6.421875 -2.484375 6.421875 -2.296875 C 6.421875 -1.972656 6.335938 -1.707031 6.171875 -1.5 C 5.765625 -1 5.28125 -0.613281 4.71875 -0.34375 C 4.15625 -0.0703125 3.613281 0.0625 3.09375 0.0625 Z M 3.09375 0.0625 "/></g></g></g><g fill="#0071af" fill-opacity="1"><g transform="translate(196.77676, 68.640615)"><g><path d="M 5.515625 -2.875 C 5.628906 -2.875 5.71875 -2.820312 5.78125 -2.71875 C 5.84375 -2.625 5.875 -2.484375 5.875 -2.296875 C 5.875 -1.953125 5.796875 -1.6875 5.640625 -1.5 C 5.265625 -1.039062 4.859375 -0.664062 4.421875 -0.375 C 3.984375 -0.0820312 3.492188 0.0625 2.953125 0.0625 C 2.191406 0.0625 1.625 -0.28125 1.25 -0.96875 C 0.882812 -1.65625 0.703125 -2.546875 0.703125 -3.640625 C 0.703125 -4.691406 0.835938 -5.890625 1.109375 -7.234375 C 1.390625 -8.578125 1.789062 -9.726562 2.3125 -10.6875 C 2.84375 -11.65625 3.476562 -12.140625 4.21875 -12.140625 C 4.625 -12.140625 4.945312 -11.945312 5.1875 -11.5625 C 5.425781 -11.1875 5.546875 -10.640625 5.546875 -9.921875 C 5.546875 -8.898438 5.257812 -7.710938 4.6875 -6.359375 C 4.125 -5.003906 3.351562 -3.664062 2.375 -2.34375 C 2.4375 -1.988281 2.535156 -1.734375 2.671875 -1.578125 C 2.804688 -1.429688 2.988281 -1.359375 3.21875 -1.359375 C 3.570312 -1.359375 3.878906 -1.457031 4.140625 -1.65625 C 4.410156 -1.863281 4.753906 -2.210938 5.171875 -2.703125 C 5.273438 -2.816406 5.390625 -2.875 5.515625 -2.875 Z M 3.921875 -10.875 C 3.722656 -10.875 3.5 -10.515625 3.25 -9.796875 C 3 -9.078125 2.78125 -8.1875 2.59375 -7.125 C 2.40625 -6.070312 2.300781 -5.054688 2.28125 -4.078125 C 2.894531 -5.085938 3.382812 -6.097656 3.75 -7.109375 C 4.113281 -8.117188 4.296875 -9.046875 4.296875 -9.890625 C 4.296875 -10.546875 4.171875 -10.875 3.921875 -10.875 Z M 3.921875 -10.875 "/></g></g></g><g fill="#0071af" fill-opacity="1"><g transform="translate(200.987943, 68.640615)"><g><path d="M 6.390625 -2.875 C 6.492188 -2.875 6.578125 -2.820312 6.640625 -2.71875 C 6.710938 -2.625 6.75 -2.484375 6.75 -2.296875 C 6.75 -1.953125 6.664062 -1.6875 6.5 -1.5 C 6.175781 -1.113281 5.722656 -0.753906 5.140625 -0.421875 C 4.566406 -0.0976562 3.945312 0.0625 3.28125 0.0625 C 2.375 0.0625 1.671875 -0.179688 1.171875 -0.671875 C 0.671875 -1.160156 0.421875 -1.832031 0.421875 -2.6875 C 0.421875 -3.28125 0.546875 -3.832031 0.796875 -4.34375 C 1.046875 -4.851562 1.390625 -5.257812 1.828125 -5.5625 C 2.273438 -5.863281 2.78125 -6.015625 3.34375 -6.015625 C 3.84375 -6.015625 4.242188 -5.863281 4.546875 -5.5625 C 4.847656 -5.269531 5 -4.875 5 -4.375 C 5 -3.769531 4.785156 -3.253906 4.359375 -2.828125 C 3.929688 -2.410156 3.210938 -2.078125 2.203125 -1.828125 C 2.410156 -1.429688 2.816406 -1.234375 3.421875 -1.234375 C 3.804688 -1.234375 4.242188 -1.367188 4.734375 -1.640625 C 5.234375 -1.910156 5.664062 -2.265625 6.03125 -2.703125 C 6.132812 -2.816406 6.253906 -2.875 6.390625 -2.875 Z M 3.125 -4.75 C 2.8125 -4.75 2.539062 -4.5625 2.3125 -4.1875 C 2.09375 -3.820312 1.984375 -3.378906 1.984375 -2.859375 L 1.984375 -2.828125 C 2.492188 -2.953125 2.894531 -3.132812 3.1875 -3.375 C 3.476562 -3.613281 3.625 -3.894531 3.625 -4.21875 C 3.625 -4.375 3.578125 -4.5 3.484375 -4.59375 C 3.398438 -4.695312 3.28125 -4.75 3.125 -4.75 Z M 3.125 -4.75 "/></g></g></g><g fill="#0071af" fill-opacity="1"><g transform="translate(206.064604, 68.640615)"><g><path d="M 2.203125 0.0625 C 1.671875 0.0625 1.242188 -0.128906 0.921875 -0.515625 C 0.609375 -0.898438 0.453125 -1.410156 0.453125 -2.046875 C 0.453125 -2.734375 0.609375 -3.382812 0.921875 -4 C 1.242188 -4.613281 1.671875 -5.109375 2.203125 -5.484375 C 2.734375 -5.859375 3.296875 -6.046875 3.890625 -6.046875 C 4.078125 -6.046875 4.203125 -6.007812 4.265625 -5.9375 C 4.335938 -5.863281 4.394531 -5.734375 4.4375 -5.546875 C 4.613281 -5.578125 4.800781 -5.59375 5 -5.59375 C 5.425781 -5.59375 5.640625 -5.441406 5.640625 -5.140625 C 5.640625 -4.960938 5.570312 -4.53125 5.4375 -3.84375 C 5.238281 -2.851562 5.140625 -2.164062 5.140625 -1.78125 C 5.140625 -1.65625 5.171875 -1.550781 5.234375 -1.46875 C 5.304688 -1.394531 5.390625 -1.359375 5.484375 -1.359375 C 5.648438 -1.359375 5.847656 -1.460938 6.078125 -1.671875 C 6.316406 -1.878906 6.632812 -2.222656 7.03125 -2.703125 C 7.132812 -2.816406 7.25 -2.875 7.375 -2.875 C 7.488281 -2.875 7.578125 -2.820312 7.640625 -2.71875 C 7.703125 -2.625 7.734375 -2.484375 7.734375 -2.296875 C 7.734375 -1.953125 7.65625 -1.6875 7.5 -1.5 C 7.144531 -1.0625 6.769531 -0.691406 6.375 -0.390625 C 5.976562 -0.0859375 5.59375 0.0625 5.21875 0.0625 C 4.9375 0.0625 4.675781 -0.03125 4.4375 -0.21875 C 4.195312 -0.414062 4.019531 -0.679688 3.90625 -1.015625 C 3.457031 -0.296875 2.890625 0.0625 2.203125 0.0625 Z M 2.671875 -1.234375 C 2.859375 -1.234375 3.035156 -1.34375 3.203125 -1.5625 C 3.378906 -1.789062 3.507812 -2.09375 3.59375 -2.46875 L 4.078125 -4.84375 C 3.710938 -4.832031 3.375 -4.695312 3.0625 -4.4375 C 2.757812 -4.175781 2.515625 -3.828125 2.328125 -3.390625 C 2.148438 -2.960938 2.0625 -2.507812 2.0625 -2.03125 C 2.0625 -1.757812 2.113281 -1.554688 2.21875 -1.421875 C 2.332031 -1.296875 2.484375 -1.234375 2.671875 -1.234375 Z M 2.671875 -1.234375 "/></g></g></g><g fill="#0071af" fill-opacity="1"><g transform="translate(212.135932, 68.640615)"><g><path d="M 1.53125 0.0625 C 1.207031 0.0625 0.976562 -0.109375 0.84375 -0.453125 C 0.707031 -0.796875 0.640625 -1.347656 0.640625 -2.109375 C 0.640625 -3.222656 0.800781 -4.285156 1.125 -5.296875 C 1.195312 -5.546875 1.320312 -5.726562 1.5 -5.84375 C 1.675781 -5.957031 1.925781 -6.015625 2.25 -6.015625 C 2.414062 -6.015625 2.535156 -5.992188 2.609375 -5.953125 C 2.679688 -5.910156 2.71875 -5.832031 2.71875 -5.71875 C 2.71875 -5.570312 2.648438 -5.257812 2.515625 -4.78125 C 2.429688 -4.4375 2.363281 -4.132812 2.3125 -3.875 C 2.257812 -3.613281 2.21875 -3.296875 2.1875 -2.921875 C 2.46875 -3.660156 2.785156 -4.257812 3.140625 -4.71875 C 3.492188 -5.1875 3.835938 -5.519531 4.171875 -5.71875 C 4.515625 -5.914062 4.828125 -6.015625 5.109375 -6.015625 C 5.671875 -6.015625 5.953125 -5.738281 5.953125 -5.1875 C 5.953125 -4.84375 5.859375 -4.234375 5.671875 -3.359375 C 5.503906 -2.609375 5.421875 -2.113281 5.421875 -1.875 C 5.421875 -1.53125 5.546875 -1.359375 5.796875 -1.359375 C 5.972656 -1.359375 6.175781 -1.460938 6.40625 -1.671875 C 6.644531 -1.878906 6.960938 -2.222656 7.359375 -2.703125 C 7.460938 -2.816406 7.582031 -2.875 7.71875 -2.875 C 7.820312 -2.875 7.90625 -2.820312 7.96875 -2.71875 C 8.039062 -2.625 8.078125 -2.484375 8.078125 -2.296875 C 8.078125 -1.953125 7.992188 -1.6875 7.828125 -1.5 C 7.460938 -1.039062 7.066406 -0.664062 6.640625 -0.375 C 6.210938 -0.0820312 5.726562 0.0625 5.1875 0.0625 C 4.738281 0.0625 4.398438 -0.0625 4.171875 -0.3125 C 3.953125 -0.570312 3.84375 -0.941406 3.84375 -1.421875 C 3.84375 -1.660156 3.90625 -2.09375 4.03125 -2.71875 C 4.144531 -3.257812 4.203125 -3.632812 4.203125 -3.84375 C 4.203125 -3.976562 4.15625 -4.046875 4.0625 -4.046875 C 3.945312 -4.046875 3.785156 -3.898438 3.578125 -3.609375 C 3.378906 -3.316406 3.175781 -2.929688 2.96875 -2.453125 C 2.757812 -1.984375 2.585938 -1.488281 2.453125 -0.96875 C 2.359375 -0.5625 2.25 -0.285156 2.125 -0.140625 C 2 -0.00390625 1.800781 0.0625 1.53125 0.0625 Z M 1.53125 0.0625 "/></g></g></g><g fill="#0071af" fill-opacity="1"><g transform="translate(218.543122, 68.640615)"><g><path d="M 2.3125 -6.875 C 1.945312 -6.875 1.675781 -6.957031 1.5 -7.125 C 1.320312 -7.289062 1.234375 -7.523438 1.234375 -7.828125 C 1.234375 -8.128906 1.347656 -8.378906 1.578125 -8.578125 C 1.816406 -8.785156 2.113281 -8.890625 2.46875 -8.890625 C 2.789062 -8.890625 3.050781 -8.8125 3.25 -8.65625 C 3.445312 -8.5 3.546875 -8.28125 3.546875 -8 C 3.546875 -7.65625 3.429688 -7.378906 3.203125 -7.171875 C 2.984375 -6.972656 2.6875 -6.875 2.3125 -6.875 Z M 2.203125 0.0625 C 1.648438 0.0625 1.242188 -0.132812 0.984375 -0.53125 C 0.734375 -0.925781 0.609375 -1.453125 0.609375 -2.109375 C 0.609375 -2.492188 0.65625 -2.988281 0.75 -3.59375 C 0.851562 -4.207031 0.984375 -4.773438 1.140625 -5.296875 C 1.210938 -5.578125 1.3125 -5.765625 1.4375 -5.859375 C 1.570312 -5.960938 1.78125 -6.015625 2.0625 -6.015625 C 2.5 -6.015625 2.71875 -5.867188 2.71875 -5.578125 C 2.71875 -5.367188 2.640625 -4.867188 2.484375 -4.078125 C 2.273438 -3.128906 2.171875 -2.488281 2.171875 -2.15625 C 2.171875 -1.894531 2.203125 -1.695312 2.265625 -1.5625 C 2.335938 -1.425781 2.457031 -1.359375 2.625 -1.359375 C 2.78125 -1.359375 2.972656 -1.460938 3.203125 -1.671875 C 3.429688 -1.890625 3.742188 -2.234375 4.140625 -2.703125 C 4.242188 -2.816406 4.359375 -2.875 4.484375 -2.875 C 4.597656 -2.875 4.6875 -2.820312 4.75 -2.71875 C 4.8125 -2.625 4.84375 -2.484375 4.84375 -2.296875 C 4.84375 -1.953125 4.757812 -1.6875 4.59375 -1.5 C 3.75 -0.457031 2.953125 0.0625 2.203125 0.0625 Z M 2.203125 0.0625 "/></g></g></g><g fill="#0071af" fill-opacity="1"><g transform="translate(221.720884, 68.640615)"><g><path d="M 1.53125 0.0625 C 1.207031 0.0625 0.976562 -0.109375 0.84375 -0.453125 C 0.707031 -0.796875 0.640625 -1.347656 0.640625 -2.109375 C 0.640625 -3.222656 0.800781 -4.285156 1.125 -5.296875 C 1.195312 -5.546875 1.320312 -5.726562 1.5 -5.84375 C 1.675781 -5.957031 1.925781 -6.015625 2.25 -6.015625 C 2.414062 -6.015625 2.535156 -5.992188 2.609375 -5.953125 C 2.679688 -5.910156 2.71875 -5.832031 2.71875 -5.71875 C 2.71875 -5.570312 2.648438 -5.257812 2.515625 -4.78125 C 2.429688 -4.4375 2.363281 -4.132812 2.3125 -3.875 C 2.257812 -3.613281 2.21875 -3.296875 2.1875 -2.921875 C 2.46875 -3.660156 2.785156 -4.257812 3.140625 -4.71875 C 3.492188 -5.1875 3.835938 -5.519531 4.171875 -5.71875 C 4.515625 -5.914062 4.828125 -6.015625 5.109375 -6.015625 C 5.671875 -6.015625 5.953125 -5.738281 5.953125 -5.1875 C 5.953125 -4.84375 5.859375 -4.234375 5.671875 -3.359375 C 5.503906 -2.609375 5.421875 -2.113281 5.421875 -1.875 C 5.421875 -1.53125 5.546875 -1.359375 5.796875 -1.359375 C 5.972656 -1.359375 6.175781 -1.460938 6.40625 -1.671875 C 6.644531 -1.878906 6.960938 -2.222656 7.359375 -2.703125 C 7.460938 -2.816406 7.582031 -2.875 7.71875 -2.875 C 7.820312 -2.875 7.90625 -2.820312 7.96875 -2.71875 C 8.039062 -2.625 8.078125 -2.484375 8.078125 -2.296875 C 8.078125 -1.953125 7.992188 -1.6875 7.828125 -1.5 C 7.460938 -1.039062 7.066406 -0.664062 6.640625 -0.375 C 6.210938 -0.0820312 5.726562 0.0625 5.1875 0.0625 C 4.738281 0.0625 4.398438 -0.0625 4.171875 -0.3125 C 3.953125 -0.570312 3.84375 -0.941406 3.84375 -1.421875 C 3.84375 -1.660156 3.90625 -2.09375 4.03125 -2.71875 C 4.144531 -3.257812 4.203125 -3.632812 4.203125 -3.84375 C 4.203125 -3.976562 4.15625 -4.046875 4.0625 -4.046875 C 3.945312 -4.046875 3.785156 -3.898438 3.578125 -3.609375 C 3.378906 -3.316406 3.175781 -2.929688 2.96875 -2.453125 C 2.757812 -1.984375 2.585938 -1.488281 2.453125 -0.96875 C 2.359375 -0.5625 2.25 -0.285156 2.125 -0.140625 C 2 -0.00390625 1.800781 0.0625 1.53125 0.0625 Z M 1.53125 0.0625 "/></g></g></g><g fill="#0071af" fill-opacity="1"><g transform="translate(228.128074, 68.640615)"><g><path d="M 7.234375 -2.859375 C 7.347656 -2.859375 7.4375 -2.800781 7.5 -2.6875 C 7.5625 -2.582031 7.59375 -2.445312 7.59375 -2.28125 C 7.59375 -2.082031 7.5625 -1.925781 7.5 -1.8125 C 7.445312 -1.707031 7.351562 -1.613281 7.21875 -1.53125 C 6.476562 -1.03125 5.9375 -0.65625 5.59375 -0.40625 L 4.765625 0.140625 C 4.441406 1.921875 4.015625 3.320312 3.484375 4.34375 C 2.953125 5.363281 2.273438 5.875 1.453125 5.875 C 1.015625 5.875 0.65625 5.738281 0.375 5.46875 C 0.101562 5.195312 -0.03125 4.84375 -0.03125 4.40625 C -0.03125 3.789062 0.207031 3.128906 0.6875 2.421875 C 1.175781 1.722656 2.082031 0.863281 3.40625 -0.15625 L 3.484375 -0.65625 C 3.335938 -0.425781 3.144531 -0.25 2.90625 -0.125 C 2.675781 0 2.441406 0.0625 2.203125 0.0625 C 1.671875 0.0625 1.242188 -0.128906 0.921875 -0.515625 C 0.609375 -0.898438 0.453125 -1.410156 0.453125 -2.046875 C 0.453125 -2.734375 0.609375 -3.382812 0.921875 -4 C 1.242188 -4.613281 1.671875 -5.109375 2.203125 -5.484375 C 2.734375 -5.859375 3.296875 -6.046875 3.890625 -6.046875 C 4.078125 -6.046875 4.203125 -6.007812 4.265625 -5.9375 C 4.335938 -5.863281 4.394531 -5.734375 4.4375 -5.546875 C 4.59375 -5.578125 4.78125 -5.59375 5 -5.59375 C 5.21875 -5.59375 5.367188 -5.5625 5.453125 -5.5 C 5.546875 -5.4375 5.59375 -5.304688 5.59375 -5.109375 C 5.59375 -5.015625 5.585938 -4.9375 5.578125 -4.875 C 5.546875 -4.601562 5.441406 -3.925781 5.265625 -2.84375 C 5.222656 -2.632812 5.179688 -2.40625 5.140625 -2.15625 C 5.109375 -1.914062 5.070312 -1.65625 5.03125 -1.375 C 5.6875 -1.894531 6.320312 -2.351562 6.9375 -2.75 C 7.050781 -2.820312 7.148438 -2.859375 7.234375 -2.859375 Z M 2.671875 -1.234375 C 2.867188 -1.234375 3.054688 -1.351562 3.234375 -1.59375 C 3.421875 -1.84375 3.550781 -2.191406 3.625 -2.640625 L 4.046875 -4.84375 C 3.691406 -4.832031 3.363281 -4.695312 3.0625 -4.4375 C 2.757812 -4.175781 2.515625 -3.828125 2.328125 -3.390625 C 2.148438 -2.960938 2.0625 -2.507812 2.0625 -2.03125 C 2.0625 -1.757812 2.113281 -1.554688 2.21875 -1.421875 C 2.332031 -1.296875 2.484375 -1.234375 2.671875 -1.234375 Z M 1.609375 4.625 C 1.816406 4.625 2.054688 4.363281 2.328125 3.84375 C 2.597656 3.332031 2.859375 2.507812 3.109375 1.375 C 2.453125 1.945312 1.972656 2.460938 1.671875 2.921875 C 1.378906 3.378906 1.234375 3.78125 1.234375 4.125 C 1.234375 4.269531 1.257812 4.390625 1.3125 4.484375 C 1.375 4.578125 1.472656 4.625 1.609375 4.625 Z M 1.609375 4.625 "/></g></g></g><g fill="#0071af" fill-opacity="1"><g transform="translate(234.315667, 68.640615)"><g/></g></g><g fill="#0071af" fill-opacity="1"><g transform="translate(237.738859, 68.640615)"><g><path d="M 6.390625 -2.875 C 6.492188 -2.875 6.578125 -2.820312 6.640625 -2.71875 C 6.710938 -2.625 6.75 -2.484375 6.75 -2.296875 C 6.75 -1.953125 6.664062 -1.6875 6.5 -1.5 C 6.175781 -1.113281 5.722656 -0.753906 5.140625 -0.421875 C 4.566406 -0.0976562 3.945312 0.0625 3.28125 0.0625 C 2.375 0.0625 1.671875 -0.179688 1.171875 -0.671875 C 0.671875 -1.160156 0.421875 -1.832031 0.421875 -2.6875 C 0.421875 -3.28125 0.546875 -3.832031 0.796875 -4.34375 C 1.046875 -4.851562 1.390625 -5.257812 1.828125 -5.5625 C 2.273438 -5.863281 2.78125 -6.015625 3.34375 -6.015625 C 3.84375 -6.015625 4.242188 -5.863281 4.546875 -5.5625 C 4.847656 -5.269531 5 -4.875 5 -4.375 C 5 -3.769531 4.785156 -3.253906 4.359375 -2.828125 C 3.929688 -2.410156 3.210938 -2.078125 2.203125 -1.828125 C 2.410156 -1.429688 2.816406 -1.234375 3.421875 -1.234375 C 3.804688 -1.234375 4.242188 -1.367188 4.734375 -1.640625 C 5.234375 -1.910156 5.664062 -2.265625 6.03125 -2.703125 C 6.132812 -2.816406 6.253906 -2.875 6.390625 -2.875 Z M 3.125 -4.75 C 2.8125 -4.75 2.539062 -4.5625 2.3125 -4.1875 C 2.09375 -3.820312 1.984375 -3.378906 1.984375 -2.859375 L 1.984375 -2.828125 C 2.492188 -2.953125 2.894531 -3.132812 3.1875 -3.375 C 3.476562 -3.613281 3.625 -3.894531 3.625 -4.21875 C 3.625 -4.375 3.578125 -4.5 3.484375 -4.59375 C 3.398438 -4.695312 3.28125 -4.75 3.125 -4.75 Z M 3.125 -4.75 "/></g></g></g><g fill="#0071af" fill-opacity="1"><g transform="translate(242.815521, 68.640615)"><g><path d="M 8.140625 -2.875 C 8.253906 -2.875 8.34375 -2.820312 8.40625 -2.71875 C 8.46875 -2.625 8.5 -2.484375 8.5 -2.296875 C 8.5 -1.953125 8.414062 -1.6875 8.25 -1.5 C 7.875 -1.050781 7.457031 -0.675781 7 -0.375 C 6.550781 -0.0820312 6.046875 0.0625 5.484375 0.0625 C 5.035156 0.0625 4.640625 -0.015625 4.296875 -0.171875 C 3.960938 -0.335938 3.695312 -0.570312 3.5 -0.875 C 3.007812 -0.257812 2.425781 0.046875 1.75 0.046875 C 1.28125 0.046875 0.90625 -0.0859375 0.625 -0.359375 C 0.351562 -0.640625 0.21875 -1.003906 0.21875 -1.453125 C 0.21875 -1.890625 0.316406 -2.238281 0.515625 -2.5 C 0.710938 -2.769531 0.992188 -2.90625 1.359375 -2.90625 C 1.671875 -2.90625 1.828125 -2.789062 1.828125 -2.5625 C 1.828125 -2.5 1.816406 -2.390625 1.796875 -2.234375 C 1.765625 -1.921875 1.75 -1.742188 1.75 -1.703125 C 1.75 -1.441406 1.863281 -1.3125 2.09375 -1.3125 C 2.257812 -1.3125 2.414062 -1.410156 2.5625 -1.609375 C 2.71875 -1.804688 2.84375 -2.070312 2.9375 -2.40625 C 3.039062 -2.738281 3.09375 -3.109375 3.09375 -3.515625 C 3.09375 -3.828125 3.050781 -4.085938 2.96875 -4.296875 C 2.894531 -4.503906 2.800781 -4.609375 2.6875 -4.609375 C 2.59375 -4.609375 2.523438 -4.582031 2.484375 -4.53125 C 2.441406 -4.488281 2.398438 -4.410156 2.359375 -4.296875 C 2.304688 -4.160156 2.234375 -4.050781 2.140625 -3.96875 C 2.054688 -3.882812 1.90625 -3.84375 1.6875 -3.84375 C 1.5 -3.84375 1.347656 -3.910156 1.234375 -4.046875 C 1.128906 -4.179688 1.078125 -4.390625 1.078125 -4.671875 C 1.078125 -5.109375 1.207031 -5.453125 1.46875 -5.703125 C 1.738281 -5.953125 2.082031 -6.078125 2.5 -6.078125 C 2.863281 -6.078125 3.191406 -5.988281 3.484375 -5.8125 C 3.773438 -5.632812 4 -5.378906 4.15625 -5.046875 C 4.414062 -5.390625 4.707031 -5.644531 5.03125 -5.8125 C 5.351562 -5.988281 5.671875 -6.078125 5.984375 -6.078125 C 6.316406 -6.078125 6.570312 -6 6.75 -5.84375 C 6.925781 -5.6875 7.015625 -5.4375 7.015625 -5.09375 C 7.015625 -4.707031 6.941406 -4.398438 6.796875 -4.171875 C 6.648438 -3.953125 6.472656 -3.84375 6.265625 -3.84375 C 6.078125 -3.84375 5.945312 -3.878906 5.875 -3.953125 C 5.8125 -4.035156 5.757812 -4.148438 5.71875 -4.296875 C 5.707031 -4.398438 5.679688 -4.476562 5.640625 -4.53125 C 5.609375 -4.582031 5.550781 -4.609375 5.46875 -4.609375 C 5.363281 -4.609375 5.253906 -4.507812 5.140625 -4.3125 C 5.023438 -4.125 4.925781 -3.867188 4.84375 -3.546875 C 4.757812 -3.234375 4.71875 -2.90625 4.71875 -2.5625 C 4.71875 -2.15625 4.8125 -1.84375 5 -1.625 C 5.195312 -1.40625 5.460938 -1.296875 5.796875 -1.296875 C 6.140625 -1.296875 6.457031 -1.410156 6.75 -1.640625 C 7.050781 -1.867188 7.398438 -2.222656 7.796875 -2.703125 C 7.898438 -2.816406 8.015625 -2.875 8.140625 -2.875 Z M 8.140625 -2.875 "/></g></g></g><g fill="#0071af" fill-opacity="1"><g transform="translate(249.648995, 68.640615)"><g><path d="M 7.515625 -2.875 C 7.628906 -2.875 7.71875 -2.820312 7.78125 -2.71875 C 7.84375 -2.625 7.875 -2.484375 7.875 -2.296875 C 7.875 -1.953125 7.796875 -1.6875 7.640625 -1.5 C 7.265625 -1.039062 6.863281 -0.664062 6.4375 -0.375 C 6.007812 -0.0820312 5.523438 0.0625 4.984375 0.0625 C 4.523438 0.0625 4.15625 -0.0976562 3.875 -0.421875 C 3.382812 -0.109375 2.875 0.0507812 2.34375 0.0625 C 2.226562 1.726562 1.972656 3.117188 1.578125 4.234375 C 1.179688 5.347656 0.597656 5.90625 -0.171875 5.90625 C -0.628906 5.90625 -0.96875 5.734375 -1.1875 5.390625 C -1.414062 5.054688 -1.53125 4.59375 -1.53125 4 C -1.53125 3.15625 -1.335938 2.171875 -0.953125 1.046875 C -0.566406 -0.078125 0.03125 -1.3125 0.84375 -2.65625 C 0.84375 -3.914062 0.832031 -4.789062 0.8125 -5.28125 C 0.800781 -5.53125 0.898438 -5.726562 1.109375 -5.875 C 1.316406 -6.019531 1.578125 -6.09375 1.890625 -6.09375 C 2.066406 -6.09375 2.195312 -6.054688 2.28125 -5.984375 C 2.363281 -5.910156 2.410156 -5.769531 2.421875 -5.5625 C 2.421875 -5.34375 2.421875 -5.179688 2.421875 -5.078125 C 2.703125 -5.421875 2.972656 -5.664062 3.234375 -5.8125 C 3.503906 -5.96875 3.789062 -6.046875 4.09375 -6.046875 C 4.570312 -6.046875 4.960938 -5.851562 5.265625 -5.46875 C 5.578125 -5.082031 5.734375 -4.570312 5.734375 -3.9375 C 5.734375 -3.476562 5.660156 -3.035156 5.515625 -2.609375 C 5.367188 -2.179688 5.164062 -1.789062 4.90625 -1.4375 C 5.09375 -1.382812 5.242188 -1.359375 5.359375 -1.359375 C 5.640625 -1.359375 5.910156 -1.460938 6.171875 -1.671875 C 6.429688 -1.878906 6.765625 -2.222656 7.171875 -2.703125 C 7.273438 -2.816406 7.390625 -2.875 7.515625 -2.875 Z M 2.40625 -1.171875 C 2.71875 -1.242188 3.003906 -1.414062 3.265625 -1.6875 C 3.523438 -1.957031 3.734375 -2.289062 3.890625 -2.6875 C 4.046875 -3.09375 4.125 -3.515625 4.125 -3.953125 C 4.125 -4.210938 4.070312 -4.410156 3.96875 -4.546875 C 3.863281 -4.679688 3.722656 -4.75 3.546875 -4.75 C 3.242188 -4.75 2.867188 -4.421875 2.421875 -3.765625 C 2.421875 -3.378906 2.421875 -2.820312 2.421875 -2.09375 C 2.421875 -1.695312 2.414062 -1.390625 2.40625 -1.171875 Z M -0.0625 4.640625 C 0.164062 4.640625 0.359375 4.132812 0.515625 3.125 C 0.671875 2.113281 0.769531 0.851562 0.8125 -0.65625 C 0.445312 0.207031 0.15625 1.03125 -0.0625 1.8125 C -0.28125 2.59375 -0.390625 3.25 -0.390625 3.78125 C -0.390625 4.0625 -0.351562 4.273438 -0.28125 4.421875 C -0.21875 4.566406 -0.144531 4.640625 -0.0625 4.640625 Z M -0.0625 4.640625 "/></g></g></g><g fill="#0071af" fill-opacity="1"><g transform="translate(255.86242, 68.640615)"><g><path d="M 6.390625 -2.875 C 6.492188 -2.875 6.578125 -2.820312 6.640625 -2.71875 C 6.710938 -2.625 6.75 -2.484375 6.75 -2.296875 C 6.75 -1.953125 6.664062 -1.6875 6.5 -1.5 C 6.175781 -1.113281 5.722656 -0.753906 5.140625 -0.421875 C 4.566406 -0.0976562 3.945312 0.0625 3.28125 0.0625 C 2.375 0.0625 1.671875 -0.179688 1.171875 -0.671875 C 0.671875 -1.160156 0.421875 -1.832031 0.421875 -2.6875 C 0.421875 -3.28125 0.546875 -3.832031 0.796875 -4.34375 C 1.046875 -4.851562 1.390625 -5.257812 1.828125 -5.5625 C 2.273438 -5.863281 2.78125 -6.015625 3.34375 -6.015625 C 3.84375 -6.015625 4.242188 -5.863281 4.546875 -5.5625 C 4.847656 -5.269531 5 -4.875 5 -4.375 C 5 -3.769531 4.785156 -3.253906 4.359375 -2.828125 C 3.929688 -2.410156 3.210938 -2.078125 2.203125 -1.828125 C 2.410156 -1.429688 2.816406 -1.234375 3.421875 -1.234375 C 3.804688 -1.234375 4.242188 -1.367188 4.734375 -1.640625 C 5.234375 -1.910156 5.664062 -2.265625 6.03125 -2.703125 C 6.132812 -2.816406 6.253906 -2.875 6.390625 -2.875 Z M 3.125 -4.75 C 2.8125 -4.75 2.539062 -4.5625 2.3125 -4.1875 C 2.09375 -3.820312 1.984375 -3.378906 1.984375 -2.859375 L 1.984375 -2.828125 C 2.492188 -2.953125 2.894531 -3.132812 3.1875 -3.375 C 3.476562 -3.613281 3.625 -3.894531 3.625 -4.21875 C 3.625 -4.375 3.578125 -4.5 3.484375 -4.59375 C 3.398438 -4.695312 3.28125 -4.75 3.125 -4.75 Z M 3.125 -4.75 "/></g></g></g><g fill="#0071af" fill-opacity="1"><g transform="translate(260.939082, 68.640615)"><g><path d="M 1.53125 0.0625 C 1.207031 0.0625 0.976562 -0.109375 0.84375 -0.453125 C 0.707031 -0.796875 0.640625 -1.347656 0.640625 -2.109375 C 0.640625 -3.222656 0.800781 -4.285156 1.125 -5.296875 C 1.195312 -5.546875 1.320312 -5.726562 1.5 -5.84375 C 1.675781 -5.957031 1.925781 -6.015625 2.25 -6.015625 C 2.414062 -6.015625 2.535156 -5.992188 2.609375 -5.953125 C 2.679688 -5.910156 2.71875 -5.832031 2.71875 -5.71875 C 2.71875 -5.570312 2.648438 -5.257812 2.515625 -4.78125 C 2.429688 -4.4375 2.363281 -4.132812 2.3125 -3.875 C 2.257812 -3.613281 2.21875 -3.296875 2.1875 -2.921875 C 2.46875 -3.660156 2.785156 -4.257812 3.140625 -4.71875 C 3.492188 -5.1875 3.835938 -5.519531 4.171875 -5.71875 C 4.515625 -5.914062 4.828125 -6.015625 5.109375 -6.015625 C 5.671875 -6.015625 5.953125 -5.738281 5.953125 -5.1875 C 5.953125 -5.070312 5.914062 -4.800781 5.84375 -4.375 C 5.769531 -4.019531 5.734375 -3.800781 5.734375 -3.71875 C 5.734375 -3.414062 5.84375 -3.265625 6.0625 -3.265625 C 6.300781 -3.265625 6.609375 -3.457031 6.984375 -3.84375 C 7.097656 -3.945312 7.21875 -4 7.34375 -4 C 7.445312 -4 7.53125 -3.945312 7.59375 -3.84375 C 7.664062 -3.75 7.703125 -3.625 7.703125 -3.46875 C 7.703125 -3.144531 7.613281 -2.894531 7.4375 -2.71875 C 7.195312 -2.46875 6.914062 -2.253906 6.59375 -2.078125 C 6.269531 -1.898438 5.925781 -1.8125 5.5625 -1.8125 C 5.113281 -1.8125 4.769531 -1.925781 4.53125 -2.15625 C 4.289062 -2.382812 4.171875 -2.695312 4.171875 -3.09375 C 4.171875 -3.226562 4.1875 -3.359375 4.21875 -3.484375 C 4.226562 -3.660156 4.234375 -3.78125 4.234375 -3.84375 C 4.234375 -3.976562 4.1875 -4.046875 4.09375 -4.046875 C 3.96875 -4.046875 3.796875 -3.898438 3.578125 -3.609375 C 3.367188 -3.316406 3.160156 -2.929688 2.953125 -2.453125 C 2.753906 -1.984375 2.585938 -1.488281 2.453125 -0.96875 C 2.359375 -0.5625 2.25 -0.285156 2.125 -0.140625 C 2 -0.00390625 1.800781 0.0625 1.53125 0.0625 Z M 1.53125 0.0625 "/></g></g></g><g fill="#0071af" fill-opacity="1"><g transform="translate(266.816645, 68.640615)"><g><path d="M 2.3125 -6.875 C 1.945312 -6.875 1.675781 -6.957031 1.5 -7.125 C 1.320312 -7.289062 1.234375 -7.523438 1.234375 -7.828125 C 1.234375 -8.128906 1.347656 -8.378906 1.578125 -8.578125 C 1.816406 -8.785156 2.113281 -8.890625 2.46875 -8.890625 C 2.789062 -8.890625 3.050781 -8.8125 3.25 -8.65625 C 3.445312 -8.5 3.546875 -8.28125 3.546875 -8 C 3.546875 -7.65625 3.429688 -7.378906 3.203125 -7.171875 C 2.984375 -6.972656 2.6875 -6.875 2.3125 -6.875 Z M 2.203125 0.0625 C 1.648438 0.0625 1.242188 -0.132812 0.984375 -0.53125 C 0.734375 -0.925781 0.609375 -1.453125 0.609375 -2.109375 C 0.609375 -2.492188 0.65625 -2.988281 0.75 -3.59375 C 0.851562 -4.207031 0.984375 -4.773438 1.140625 -5.296875 C 1.210938 -5.578125 1.3125 -5.765625 1.4375 -5.859375 C 1.570312 -5.960938 1.78125 -6.015625 2.0625 -6.015625 C 2.5 -6.015625 2.71875 -5.867188 2.71875 -5.578125 C 2.71875 -5.367188 2.640625 -4.867188 2.484375 -4.078125 C 2.273438 -3.128906 2.171875 -2.488281 2.171875 -2.15625 C 2.171875 -1.894531 2.203125 -1.695312 2.265625 -1.5625 C 2.335938 -1.425781 2.457031 -1.359375 2.625 -1.359375 C 2.78125 -1.359375 2.972656 -1.460938 3.203125 -1.671875 C 3.429688 -1.890625 3.742188 -2.234375 4.140625 -2.703125 C 4.242188 -2.816406 4.359375 -2.875 4.484375 -2.875 C 4.597656 -2.875 4.6875 -2.820312 4.75 -2.71875 C 4.8125 -2.625 4.84375 -2.484375 4.84375 -2.296875 C 4.84375 -1.953125 4.757812 -1.6875 4.59375 -1.5 C 3.75 -0.457031 2.953125 0.0625 2.203125 0.0625 Z M 2.203125 0.0625 "/></g></g></g><g fill="#0071af" fill-opacity="1"><g transform="translate(269.994407, 68.640615)"><g><path d="M 6.390625 -2.875 C 6.492188 -2.875 6.578125 -2.820312 6.640625 -2.71875 C 6.710938 -2.625 6.75 -2.484375 6.75 -2.296875 C 6.75 -1.953125 6.664062 -1.6875 6.5 -1.5 C 6.175781 -1.113281 5.722656 -0.753906 5.140625 -0.421875 C 4.566406 -0.0976562 3.945312 0.0625 3.28125 0.0625 C 2.375 0.0625 1.671875 -0.179688 1.171875 -0.671875 C 0.671875 -1.160156 0.421875 -1.832031 0.421875 -2.6875 C 0.421875 -3.28125 0.546875 -3.832031 0.796875 -4.34375 C 1.046875 -4.851562 1.390625 -5.257812 1.828125 -5.5625 C 2.273438 -5.863281 2.78125 -6.015625 3.34375 -6.015625 C 3.84375 -6.015625 4.242188 -5.863281 4.546875 -5.5625 C 4.847656 -5.269531 5 -4.875 5 -4.375 C 5 -3.769531 4.785156 -3.253906 4.359375 -2.828125 C 3.929688 -2.410156 3.210938 -2.078125 2.203125 -1.828125 C 2.410156 -1.429688 2.816406 -1.234375 3.421875 -1.234375 C 3.804688 -1.234375 4.242188 -1.367188 4.734375 -1.640625 C 5.234375 -1.910156 5.664062 -2.265625 6.03125 -2.703125 C 6.132812 -2.816406 6.253906 -2.875 6.390625 -2.875 Z M 3.125 -4.75 C 2.8125 -4.75 2.539062 -4.5625 2.3125 -4.1875 C 2.09375 -3.820312 1.984375 -3.378906 1.984375 -2.859375 L 1.984375 -2.828125 C 2.492188 -2.953125 2.894531 -3.132812 3.1875 -3.375 C 3.476562 -3.613281 3.625 -3.894531 3.625 -4.21875 C 3.625 -4.375 3.578125 -4.5 3.484375 -4.59375 C 3.398438 -4.695312 3.28125 -4.75 3.125 -4.75 Z M 3.125 -4.75 "/></g></g></g><g fill="#0071af" fill-opacity="1"><g transform="translate(275.071069, 68.640615)"><g><path d="M 1.53125 0.0625 C 1.207031 0.0625 0.976562 -0.109375 0.84375 -0.453125 C 0.707031 -0.796875 0.640625 -1.347656 0.640625 -2.109375 C 0.640625 -3.222656 0.800781 -4.285156 1.125 -5.296875 C 1.195312 -5.546875 1.320312 -5.726562 1.5 -5.84375 C 1.675781 -5.957031 1.925781 -6.015625 2.25 -6.015625 C 2.414062 -6.015625 2.535156 -5.992188 2.609375 -5.953125 C 2.679688 -5.910156 2.71875 -5.832031 2.71875 -5.71875 C 2.71875 -5.570312 2.648438 -5.257812 2.515625 -4.78125 C 2.429688 -4.4375 2.363281 -4.132812 2.3125 -3.875 C 2.257812 -3.613281 2.21875 -3.296875 2.1875 -2.921875 C 2.46875 -3.660156 2.785156 -4.257812 3.140625 -4.71875 C 3.492188 -5.1875 3.835938 -5.519531 4.171875 -5.71875 C 4.515625 -5.914062 4.828125 -6.015625 5.109375 -6.015625 C 5.671875 -6.015625 5.953125 -5.738281 5.953125 -5.1875 C 5.953125 -4.84375 5.859375 -4.234375 5.671875 -3.359375 C 5.503906 -2.609375 5.421875 -2.113281 5.421875 -1.875 C 5.421875 -1.53125 5.546875 -1.359375 5.796875 -1.359375 C 5.972656 -1.359375 6.175781 -1.460938 6.40625 -1.671875 C 6.644531 -1.878906 6.960938 -2.222656 7.359375 -2.703125 C 7.460938 -2.816406 7.582031 -2.875 7.71875 -2.875 C 7.820312 -2.875 7.90625 -2.820312 7.96875 -2.71875 C 8.039062 -2.625 8.078125 -2.484375 8.078125 -2.296875 C 8.078125 -1.953125 7.992188 -1.6875 7.828125 -1.5 C 7.460938 -1.039062 7.066406 -0.664062 6.640625 -0.375 C 6.210938 -0.0820312 5.726562 0.0625 5.1875 0.0625 C 4.738281 0.0625 4.398438 -0.0625 4.171875 -0.3125 C 3.953125 -0.570312 3.84375 -0.941406 3.84375 -1.421875 C 3.84375 -1.660156 3.90625 -2.09375 4.03125 -2.71875 C 4.144531 -3.257812 4.203125 -3.632812 4.203125 -3.84375 C 4.203125 -3.976562 4.15625 -4.046875 4.0625 -4.046875 C 3.945312 -4.046875 3.785156 -3.898438 3.578125 -3.609375 C 3.378906 -3.316406 3.175781 -2.929688 2.96875 -2.453125 C 2.757812 -1.984375 2.585938 -1.488281 2.453125 -0.96875 C 2.359375 -0.5625 2.25 -0.285156 2.125 -0.140625 C 2 -0.00390625 1.800781 0.0625 1.53125 0.0625 Z M 1.53125 0.0625 "/></g></g></g><g fill="#0071af" fill-opacity="1"><g transform="translate(281.478259, 68.640615)"><g><path d="M 3.09375 0.0625 C 2.25 0.0625 1.585938 -0.175781 1.109375 -0.65625 C 0.640625 -1.132812 0.40625 -1.765625 0.40625 -2.546875 C 0.40625 -3.242188 0.539062 -3.851562 0.8125 -4.375 C 1.09375 -4.90625 1.453125 -5.3125 1.890625 -5.59375 C 2.335938 -5.875 2.800781 -6.015625 3.28125 -6.015625 C 3.757812 -6.015625 4.128906 -5.875 4.390625 -5.59375 C 4.648438 -5.320312 4.78125 -4.960938 4.78125 -4.515625 C 4.78125 -4.160156 4.695312 -3.859375 4.53125 -3.609375 C 4.375 -3.359375 4.171875 -3.234375 3.921875 -3.234375 C 3.753906 -3.234375 3.617188 -3.269531 3.515625 -3.34375 C 3.421875 -3.425781 3.375 -3.535156 3.375 -3.671875 C 3.375 -3.734375 3.378906 -3.800781 3.390625 -3.875 C 3.410156 -3.957031 3.425781 -4.015625 3.4375 -4.046875 C 3.476562 -4.171875 3.5 -4.289062 3.5 -4.40625 C 3.5 -4.519531 3.46875 -4.601562 3.40625 -4.65625 C 3.351562 -4.71875 3.273438 -4.75 3.171875 -4.75 C 2.972656 -4.75 2.785156 -4.660156 2.609375 -4.484375 C 2.441406 -4.304688 2.304688 -4.066406 2.203125 -3.765625 C 2.097656 -3.472656 2.046875 -3.144531 2.046875 -2.78125 C 2.046875 -1.78125 2.484375 -1.28125 3.359375 -1.28125 C 3.710938 -1.28125 4.09375 -1.394531 4.5 -1.625 C 4.90625 -1.863281 5.3125 -2.222656 5.71875 -2.703125 C 5.8125 -2.816406 5.925781 -2.875 6.0625 -2.875 C 6.175781 -2.875 6.265625 -2.820312 6.328125 -2.71875 C 6.390625 -2.625 6.421875 -2.484375 6.421875 -2.296875 C 6.421875 -1.972656 6.335938 -1.707031 6.171875 -1.5 C 5.765625 -1 5.28125 -0.613281 4.71875 -0.34375 C 4.15625 -0.0703125 3.613281 0.0625 3.09375 0.0625 Z M 3.09375 0.0625 "/></g></g></g><g fill="#0071af" fill-opacity="1"><g transform="translate(286.23198, 68.640615)"><g><path d="M 6.390625 -2.875 C 6.492188 -2.875 6.578125 -2.820312 6.640625 -2.71875 C 6.710938 -2.625 6.75 -2.484375 6.75 -2.296875 C 6.75 -1.953125 6.664062 -1.6875 6.5 -1.5 C 6.175781 -1.113281 5.722656 -0.753906 5.140625 -0.421875 C 4.566406 -0.0976562 3.945312 0.0625 3.28125 0.0625 C 2.375 0.0625 1.671875 -0.179688 1.171875 -0.671875 C 0.671875 -1.160156 0.421875 -1.832031 0.421875 -2.6875 C 0.421875 -3.28125 0.546875 -3.832031 0.796875 -4.34375 C 1.046875 -4.851562 1.390625 -5.257812 1.828125 -5.5625 C 2.273438 -5.863281 2.78125 -6.015625 3.34375 -6.015625 C 3.84375 -6.015625 4.242188 -5.863281 4.546875 -5.5625 C 4.847656 -5.269531 5 -4.875 5 -4.375 C 5 -3.769531 4.785156 -3.253906 4.359375 -2.828125 C 3.929688 -2.410156 3.210938 -2.078125 2.203125 -1.828125 C 2.410156 -1.429688 2.816406 -1.234375 3.421875 -1.234375 C 3.804688 -1.234375 4.242188 -1.367188 4.734375 -1.640625 C 5.234375 -1.910156 5.664062 -2.265625 6.03125 -2.703125 C 6.132812 -2.816406 6.253906 -2.875 6.390625 -2.875 Z M 3.125 -4.75 C 2.8125 -4.75 2.539062 -4.5625 2.3125 -4.1875 C 2.09375 -3.820312 1.984375 -3.378906 1.984375 -2.859375 L 1.984375 -2.828125 C 2.492188 -2.953125 2.894531 -3.132812 3.1875 -3.375 C 3.476562 -3.613281 3.625 -3.894531 3.625 -4.21875 C 3.625 -4.375 3.578125 -4.5 3.484375 -4.59375 C 3.398438 -4.695312 3.28125 -4.75 3.125 -4.75 Z M 3.125 -4.75 "/></g></g></g><g clip-path="url(#40f8eaf6df)"><g clip-path="url(#a62ff04ce3)"><path fill="#0077b6" d="M 0.65625 28.0625 L 54.289062 28.0625 L 54.289062 81.699219 L 0.65625 81.699219 Z M 0.65625 28.0625 " fill-opacity="1" fill-rule="nonzero"/></g></g><g clip-path="url(#1353a3d12c)"><g clip-path="url(#f2fbe3ba21)"><path fill="#0077b6" d="M 50.726562 5.292969 L 83.230469 5.292969 L 83.230469 37.796875 L 50.726562 37.796875 Z M 50.726562 5.292969 " fill-opacity="1" fill-rule="nonzero"/></g></g><g clip-path="url(#9ad6d7e46b)"><path fill="#0077b6" d="M 92.53125 30.988281 L 74.015625 24.132812 L 67.101562 1.472656 C 66.835938 0.597656 66.023438 0 65.109375 0 C 64.199219 0 63.386719 0.597656 63.121094 1.472656 L 56.210938 24.132812 L 37.691406 30.988281 C 36.875 31.292969 36.332031 32.066406 36.332031 32.9375 C 36.332031 33.808594 36.875 34.589844 37.691406 34.890625 L 56.199219 41.742188 L 63.117188 65.09375 C 63.378906 65.976562 64.191406 66.582031 65.109375 66.582031 C 66.03125 66.582031 66.84375 65.976562 67.105469 65.09375 L 74.023438 41.742188 L 92.53125 34.890625 C 93.347656 34.589844 93.890625 33.8125 93.890625 32.9375 C 93.890625 32.070312 93.347656 31.292969 92.53125 30.988281 Z M 92.53125 30.988281 " fill-opacity="1" fill-rule="nonzero"/></g><g clip-path="url(#115e762ee2)"><path fill="#0077b6" d="M 50.917969 53.878906 L 46.101562 52.097656 L 44.230469 45.230469 C 43.984375 44.324219 43.160156 43.695312 42.222656 43.695312 C 41.285156 43.695312 40.464844 44.324219 40.214844 45.226562 L 38.34375 52.09375 L 33.53125 53.875 C 32.710938 54.175781 32.171875 54.957031 32.171875 55.828125 C 32.171875 56.695312 32.710938 57.476562 33.53125 57.777344 L 38.316406 59.554688 L 40.207031 67.089844 C 40.4375 68.015625 41.269531 68.664062 42.222656 68.664062 C 43.179688 68.664062 44.007812 68.015625 44.242188 67.085938 L 46.128906 59.550781 L 50.917969 57.777344 C 51.734375 57.476562 52.277344 56.695312 52.277344 55.828125 C 52.277344 54.957031 51.734375 54.175781 50.917969 53.878906 Z M 41.890625 8.804688 L 36.972656 6.984375 L 35.148438 2.0625 C 34.847656 1.246094 34.070312 0.703125 33.199219 0.703125 C 32.328125 0.703125 31.550781 1.246094 31.246094 2.0625 L 29.425781 6.984375 L 24.503906 8.804688 C 23.6875 9.105469 23.144531 9.886719 23.144531 10.753906 C 23.144531 11.625 23.6875 12.40625 24.503906 12.707031 L 29.425781 14.527344 L 31.246094 19.449219 C 31.550781 20.265625 32.328125 20.808594 33.199219 20.808594 C 34.066406 20.808594 34.84375 20.265625 35.148438 19.449219 L 36.96875 14.527344 L 41.890625 12.707031 C 42.707031 12.402344 43.25 11.625 43.25 10.753906 C 43.25 9.886719 42.707031 9.105469 41.890625 8.804688 Z M 41.890625 8.804688 " fill-opacity="1" fill-rule="nonzero"/></g><g clip-path="url(#4471fceb60)"><path fill="#0077b6" d="M 96.4375 38.554688 L 85.808594 34.621094 L 81.839844 21.613281 C 81.6875 21.109375 81.222656 20.765625 80.699219 20.765625 C 80.175781 20.765625 79.710938 21.109375 79.554688 21.613281 L 75.589844 34.621094 L 64.957031 38.554688 C 64.488281 38.730469 64.179688 39.175781 64.179688 39.675781 C 64.179688 40.175781 64.488281 40.621094 64.957031 40.796875 L 75.582031 44.730469 L 79.554688 58.132812 C 79.703125 58.640625 80.167969 58.988281 80.699219 58.988281 C 81.226562 58.988281 81.695312 58.640625 81.84375 58.132812 L 85.8125 44.726562 L 96.441406 40.792969 C 96.90625 40.621094 97.21875 40.175781 97.21875 39.675781 C 97.21875 39.175781 96.90625 38.730469 96.4375 38.554688 Z M 96.4375 38.554688 " fill-opacity="1" fill-rule="nonzero"/></g><g clip-path="url(#3b63d4f34c)"><path fill="#0077b6" d="M 72.550781 51.695312 L 69.785156 50.671875 L 68.710938 46.730469 C 68.570312 46.210938 68.097656 45.851562 67.558594 45.851562 C 67.019531 45.851562 66.550781 46.210938 66.40625 46.730469 L 65.332031 50.671875 L 62.570312 51.695312 C 62.101562 51.867188 61.789062 52.316406 61.789062 52.816406 C 61.789062 53.3125 62.101562 53.761719 62.570312 53.933594 L 65.316406 54.953125 L 66.402344 59.28125 C 66.535156 59.808594 67.011719 60.183594 67.558594 60.183594 C 68.109375 60.183594 68.585938 59.808594 68.71875 59.277344 L 69.800781 54.953125 L 72.550781 53.933594 C 73.019531 53.761719 73.328125 53.3125 73.328125 52.816406 C 73.328125 52.316406 73.019531 51.867188 72.550781 51.695312 Z M 67.367188 25.820312 L 64.542969 24.773438 L 63.5 21.949219 C 63.324219 21.480469 62.878906 21.167969 62.378906 21.167969 C 61.878906 21.167969 61.433594 21.480469 61.257812 21.949219 L 60.210938 24.773438 L 57.386719 25.820312 C 56.917969 25.996094 56.609375 26.441406 56.609375 26.941406 C 56.609375 27.441406 56.917969 27.886719 57.386719 28.0625 L 60.210938 29.105469 L 61.257812 31.929688 C 61.433594 32.398438 61.878906 32.710938 62.378906 32.710938 C 62.878906 32.710938 63.324219 32.398438 63.5 31.929688 L 64.542969 29.105469 L 67.367188 28.0625 C 67.835938 27.886719 68.148438 27.441406 68.148438 26.941406 C 68.148438 26.441406 67.835938 25.996094 67.367188 25.820312 Z M 67.367188 25.820312 " fill-opacity="1" fill-rule="nonzero"/></g><g clip-path="url(#5aff3cc724)"><g clip-path="url(#a3deb6d253)"><path fill="#ffffff" d="M 23.96875 36.050781 L 42.796875 36.050781 L 42.796875 54.878906 L 23.96875 54.878906 Z M 23.96875 36.050781 " fill-opacity="1" fill-rule="nonzero"/></g></g><g clip-path="url(#028385f0d0)"><g clip-path="url(#60854f111d)"><path fill="#ffffff" d="M 39.019531 55.757812 L 47.871094 55.757812 L 47.871094 64.609375 L 39.019531 64.609375 Z M 39.019531 55.757812 " fill-opacity="1" fill-rule="nonzero"/></g></g><g clip-path="url(#fea319e49e)"><g clip-path="url(#b29cd3625c)"><path fill="#ffffff" d="M 66.925781 10.585938 L 75.777344 10.585938 L 75.777344 19.4375 L 66.925781 19.4375 Z M 66.925781 10.585938 " fill-opacity="1" fill-rule="nonzero"/></g></g></svg>