<svg xmlns="http://www.w3.org/2000/svg" xmlns:xlink="http://www.w3.org/1999/xlink" width="111" zoomAndPan="magnify" viewBox="0 0 83.25 82.499998" height="110" preserveAspectRatio="xMidYMid meet" version="1.0"><defs><clipPath id="50bbf92464"><path d="M 0 28.101562 L 53.480469 28.101562 L 53.480469 81.578125 L 0 81.578125 Z M 0 28.101562 " clip-rule="nonzero"/></clipPath><clipPath id="1b23877cf9"><path d="M 26.738281 28.101562 C 11.972656 28.101562 0 40.074219 0 54.839844 C 0 69.609375 11.972656 81.578125 26.738281 81.578125 C 41.507812 81.578125 53.480469 69.609375 53.480469 54.839844 C 53.480469 40.074219 41.507812 28.101562 26.738281 28.101562 Z M 26.738281 28.101562 " clip-rule="nonzero"/></clipPath><clipPath id="6e080299b9"><path d="M 49.925781 5.398438 L 82.335938 5.398438 L 82.335938 37.808594 L 49.925781 37.808594 Z M 49.925781 5.398438 " clip-rule="nonzero"/></clipPath><clipPath id="227c28e342"><path d="M 66.128906 5.398438 C 57.179688 5.398438 49.925781 12.652344 49.925781 21.601562 C 49.925781 30.550781 57.179688 37.808594 66.128906 37.808594 C 75.078125 37.808594 82.335938 30.550781 82.335938 21.601562 C 82.335938 12.652344 75.078125 5.398438 66.128906 5.398438 Z M 66.128906 5.398438 " clip-rule="nonzero"/></clipPath><clipPath id="c88edff1b4"><path d="M 35 0.121094 L 45.019531 0.121094 L 45.019531 24.710938 L 35 24.710938 Z M 35 0.121094 " clip-rule="nonzero"/></clipPath><clipPath id="1d6b1540f4"><path d="M 22.371094 0.121094 L 45.019531 0.121094 L 45.019531 24.710938 L 22.371094 24.710938 Z M 22.371094 0.121094 " clip-rule="nonzero"/></clipPath><clipPath id="f5aaddc924"><path d="M 63 45.417969 L 73.582031 45.417969 L 73.582031 59 L 63 59 Z M 63 45.417969 " clip-rule="nonzero"/></clipPath><clipPath id="14c71be76b"><path d="M 58.695312 45.417969 L 73 45.417969 L 73 60.300781 L 58.695312 60.300781 Z M 58.695312 45.417969 " clip-rule="nonzero"/></clipPath><clipPath id="bf295b0e59"><path d="M 23.242188 36.066406 L 42.019531 36.066406 L 42.019531 54.839844 L 23.242188 54.839844 Z M 23.242188 36.066406 " clip-rule="nonzero"/></clipPath><clipPath id="3195e08ec9"><path d="M 32.632812 36.066406 C 27.445312 36.066406 23.242188 40.269531 23.242188 45.453125 C 23.242188 50.636719 27.445312 54.839844 32.632812 54.839844 C 37.816406 54.839844 42.019531 50.636719 42.019531 45.453125 C 42.019531 40.269531 37.816406 36.066406 32.632812 36.066406 Z M 32.632812 36.066406 " clip-rule="nonzero"/></clipPath><clipPath id="fd45541e0d"><path d="M 38.253906 55.714844 L 47.078125 55.714844 L 47.078125 64.539062 L 38.253906 64.539062 Z M 38.253906 55.714844 " clip-rule="nonzero"/></clipPath><clipPath id="1750669aeb"><path d="M 42.664062 55.714844 C 40.226562 55.714844 38.253906 57.691406 38.253906 60.128906 C 38.253906 62.566406 40.226562 64.539062 42.664062 64.539062 C 45.101562 64.539062 47.078125 62.566406 47.078125 60.128906 C 47.078125 57.691406 45.101562 55.714844 42.664062 55.714844 Z M 42.664062 55.714844 " clip-rule="nonzero"/></clipPath><clipPath id="0045b5b4c5"><path d="M 66.078125 10.675781 L 74.902344 10.675781 L 74.902344 19.5 L 66.078125 19.5 Z M 66.078125 10.675781 " clip-rule="nonzero"/></clipPath><clipPath id="cbef537099"><path d="M 70.492188 10.675781 C 68.054688 10.675781 66.078125 12.652344 66.078125 15.089844 C 66.078125 17.527344 68.054688 19.5 70.492188 19.5 C 72.925781 19.5 74.902344 17.527344 74.902344 15.089844 C 74.902344 12.652344 72.925781 10.675781 70.492188 10.675781 Z M 70.492188 10.675781 " clip-rule="nonzero"/></clipPath></defs><g clip-path="url(#50bbf92464)"><g clip-path="url(#1b23877cf9)"><path fill="#0077b6" d="M 0 28.101562 L 53.480469 28.101562 L 53.480469 81.578125 L 0 81.578125 Z M 0 28.101562 " fill-opacity="1" fill-rule="nonzero"/></g></g><g clip-path="url(#6e080299b9)"><g clip-path="url(#227c28e342)"><path fill="#0077b6" d="M 49.925781 5.398438 L 82.335938 5.398438 L 82.335938 37.808594 L 49.925781 37.808594 Z M 49.925781 5.398438 " fill-opacity="1" fill-rule="nonzero"/></g></g><g clip-path="url(#c88edff1b4)"><path fill="#0077b6" d="M 91.605469 31.019531 L 73.144531 24.183594 L 66.25 1.589844 C 65.984375 0.71875 65.179688 0.121094 64.269531 0.121094 C 63.355469 0.121094 62.550781 0.71875 62.285156 1.589844 L 55.394531 24.183594 L 36.929688 31.019531 C 36.113281 31.320312 35.574219 32.09375 35.574219 32.964844 C 35.574219 33.832031 36.113281 34.609375 36.929688 34.910156 L 55.382812 41.742188 L 62.277344 65.023438 C 62.539062 65.90625 63.347656 66.507812 64.269531 66.507812 C 65.183594 66.507812 65.996094 65.90625 66.257812 65.023438 L 73.152344 41.738281 L 91.609375 34.90625 C 92.421875 34.609375 92.960938 33.832031 92.960938 32.964844 C 92.960938 32.097656 92.421875 31.320312 91.605469 31.019531 Z M 91.605469 31.019531 " fill-opacity="1" fill-rule="nonzero"/></g><g clip-path="url(#1d6b1540f4)"><path fill="#0077b6" d="M 50.113281 53.839844 L 45.3125 52.066406 L 43.445312 45.21875 C 43.203125 44.3125 42.382812 43.6875 41.445312 43.6875 C 40.511719 43.6875 39.691406 44.3125 39.445312 45.214844 L 37.578125 52.0625 L 32.78125 53.839844 C 31.964844 54.140625 31.425781 54.917969 31.425781 55.785156 C 31.425781 56.652344 31.964844 57.429688 32.78125 57.730469 L 37.554688 59.5 L 39.433594 67.015625 C 39.667969 67.933594 40.496094 68.582031 41.445312 68.582031 C 42.398438 68.582031 43.226562 67.933594 43.460938 67.011719 L 45.339844 59.496094 L 50.113281 57.726562 C 50.929688 57.429688 51.46875 56.652344 51.46875 55.785156 C 51.46875 54.917969 50.929688 54.140625 50.113281 53.839844 Z M 41.113281 8.898438 L 36.210938 7.082031 L 34.394531 2.175781 C 34.09375 1.359375 33.316406 0.820312 32.449219 0.820312 C 31.582031 0.820312 30.804688 1.359375 30.5 2.175781 L 28.6875 7.082031 L 23.78125 8.898438 C 22.964844 9.199219 22.425781 9.976562 22.425781 10.84375 C 22.425781 11.710938 22.964844 12.488281 23.78125 12.789062 L 28.6875 14.605469 L 30.5 19.511719 C 30.804688 20.328125 31.582031 20.867188 32.449219 20.867188 C 33.316406 20.867188 34.089844 20.328125 34.394531 19.511719 L 36.207031 14.605469 L 41.113281 12.789062 C 41.929688 12.488281 42.46875 11.710938 42.46875 10.84375 C 42.46875 9.976562 41.929688 9.199219 41.113281 8.898438 Z M 41.113281 8.898438 " fill-opacity="1" fill-rule="nonzero"/></g><g clip-path="url(#f5aaddc924)"><path fill="#0077b6" d="M 95.503906 38.5625 L 84.90625 34.640625 L 80.949219 21.667969 C 80.796875 21.167969 80.332031 20.824219 79.808594 20.824219 C 79.285156 20.824219 78.824219 21.167969 78.671875 21.667969 L 74.714844 34.640625 L 64.113281 38.5625 C 63.648438 38.738281 63.335938 39.179688 63.335938 39.679688 C 63.335938 40.179688 63.648438 40.625 64.113281 40.796875 L 74.707031 44.71875 L 78.667969 58.085938 C 78.816406 58.589844 79.28125 58.9375 79.808594 58.9375 C 80.335938 58.9375 80.800781 58.589844 80.953125 58.085938 L 84.910156 44.71875 L 95.503906 40.796875 C 95.972656 40.625 96.28125 40.179688 96.28125 39.679688 C 96.28125 39.183594 95.972656 38.738281 95.503906 38.5625 Z M 95.503906 38.5625 " fill-opacity="1" fill-rule="nonzero"/></g><g clip-path="url(#14c71be76b)"><path fill="#0077b6" d="M 71.683594 51.664062 L 68.929688 50.644531 L 67.855469 46.714844 C 67.714844 46.195312 67.246094 45.835938 66.707031 45.835938 C 66.171875 45.835938 65.703125 46.195312 65.558594 46.714844 L 64.488281 50.644531 L 61.734375 51.664062 C 61.265625 51.835938 60.957031 52.28125 60.957031 52.78125 C 60.957031 53.277344 61.265625 53.726562 61.734375 53.898438 L 64.472656 54.914062 L 65.554688 59.226562 C 65.6875 59.757812 66.164062 60.128906 66.707031 60.128906 C 67.253906 60.128906 67.730469 59.757812 67.863281 59.226562 L 68.945312 54.914062 L 71.683594 53.898438 C 72.152344 53.726562 72.460938 53.277344 72.460938 52.78125 C 72.460938 52.28125 72.152344 51.835938 71.683594 51.664062 Z M 66.519531 25.863281 L 63.703125 24.824219 L 62.660156 22.007812 C 62.488281 21.539062 62.042969 21.226562 61.542969 21.226562 C 61.042969 21.226562 60.597656 21.539062 60.425781 22.007812 L 59.382812 24.824219 L 56.566406 25.863281 C 56.097656 26.039062 55.789062 26.484375 55.789062 26.980469 C 55.789062 27.480469 56.097656 27.925781 56.566406 28.097656 L 59.382812 29.140625 L 60.425781 31.957031 C 60.597656 32.425781 61.042969 32.734375 61.542969 32.734375 C 62.039062 32.734375 62.484375 32.425781 62.660156 31.957031 L 63.703125 29.140625 L 66.519531 28.097656 C 66.988281 27.925781 67.296875 27.480469 67.296875 26.980469 C 67.296875 26.484375 66.988281 26.039062 66.519531 25.863281 Z M 66.519531 25.863281 " fill-opacity="1" fill-rule="nonzero"/></g><g clip-path="url(#bf295b0e59)"><g clip-path="url(#3195e08ec9)"><path fill="#ffffff" d="M 23.242188 36.066406 L 42.019531 36.066406 L 42.019531 54.839844 L 23.242188 54.839844 Z M 23.242188 36.066406 " fill-opacity="1" fill-rule="nonzero"/></g></g><g clip-path="url(#fd45541e0d)"><g clip-path="url(#1750669aeb)"><path fill="#ffffff" d="M 38.253906 55.714844 L 47.078125 55.714844 L 47.078125 64.539062 L 38.253906 64.539062 Z M 38.253906 55.714844 " fill-opacity="1" fill-rule="nonzero"/></g></g><g clip-path="url(#0045b5b4c5)"><g clip-path="url(#cbef537099)"><path fill="#ffffff" d="M 66.078125 10.675781 L 74.902344 10.675781 L 74.902344 19.5 L 66.078125 19.5 Z M 66.078125 10.675781 " fill-opacity="1" fill-rule="nonzero"/></g></g></svg>